<svg width="22" height="24" viewBox="0 0 22 24" fill="none" xmlns="http://www.w3.org/2000/svg">
<path d="M16.9214 23.0022C16.7237 23.0022 16.5389 22.9764 16.3626 22.9292C12.516 21.8375 8.97048 19.7487 6.11218 16.8907C3.24978 14.0283 1.16534 10.4868 0.0737333 6.64028C-0.20563 5.65177 0.318713 4.28502 1.47915 2.98279C2.45048 1.89114 3.96762 0.803771 5.29995 1.02724C6.62372 1.24643 7.99471 3.09883 8.50618 4.69333C8.97033 6.14603 8.78984 7.38381 7.99043 8.18319L7.05348 9.12013C8.6566 11.9438 11.0549 14.342 13.8786 15.9453L14.8198 15.004C15.5935 14.2304 16.9172 14.0671 18.4515 14.5571C19.9773 15.047 21.7308 16.2375 21.9715 17.6945C22.1907 19.0268 21.1076 20.544 20.016 21.5153C18.9501 22.4737 17.8327 23.0024 16.9215 23.0024L16.9214 23.0022ZM4.93879 2.37244C4.30701 2.37244 3.31851 2.98705 2.50188 3.89818C1.61653 4.891 1.2727 5.84084 1.39302 6.26632C3.4861 13.6329 9.36555 19.5122 16.7365 21.6055C17.162 21.7258 18.1075 21.382 19.1003 20.4966C20.0802 19.6199 20.7163 18.5411 20.6132 17.9265C20.4971 17.213 19.3367 16.2933 18.0302 15.8721C17.0373 15.5541 16.1778 15.5927 15.791 15.9796L14.4844 17.2861C14.2695 17.501 13.9429 17.5483 13.6764 17.4065C10.2725 15.597 7.40144 12.726 5.5923 9.32232C5.45047 9.05585 5.49775 8.7292 5.71264 8.51434L7.0192 7.20778C7.57793 6.64905 7.37163 5.65627 7.19541 5.11042C6.70977 3.60185 5.59658 2.46721 5.07227 2.38127C5.03359 2.37698 4.98631 2.37268 4.93904 2.37268L4.93879 2.37244Z" fill="white"/>
</svg>
