<svg width="25" height="22" viewBox="0 0 25 22" fill="none" xmlns="http://www.w3.org/2000/svg">
<path d="M15.5001 5.35897C15.5001 3.80762 14.2501 2.53843 12.6946 2.53843C11.139 2.53843 9.88908 3.80762 9.88908 5.35897C9.88908 6.91031 11.139 8.17951 12.6946 8.17951C14.2501 8.17951 15.5001 6.91031 15.5001 5.35897ZM11.0001 5.35897C11.0001 4.42819 11.7502 3.66654 12.6946 3.66654C13.639 3.66654 14.389 4.42814 14.389 5.35897C14.389 6.28979 13.639 7.05139 12.6946 7.05139C11.7502 7.05139 11.0001 6.28979 11.0001 5.35897ZM12.5556 15.1744L12.9445 14.7796C17.5277 10.1823 17.889 6.82566 17.889 5.92308V5.35903C17.889 2.39741 15.5001 0 12.5556 0C9.6112 0 7.22232 2.39756 7.22232 5.35903V5.92308C7.22232 6.82576 7.58349 10.182 12.1667 14.7796L12.5556 15.1744ZM8.33339 5.35897C8.33339 3.01792 10.2222 1.12816 12.5556 1.12816C14.8889 1.12816 16.7779 3.01792 16.7779 5.35897V5.92302C16.7779 6.48708 16.5557 9.39224 12.5556 13.5667C8.55561 9.39214 8.33339 6.45893 8.33339 5.92302V5.35897ZM25 18.2488L18.8611 22L12.6389 19.9128C12.5833 19.8846 12.5279 19.8563 12.5 19.8281C12.4444 19.8563 12.4167 19.8846 12.3611 19.9128L6.13887 22L0 18.2488L3.30559 6.14872L6.7222 8.23582C7.00006 8.40502 7.08337 8.74341 6.91674 8.99741C6.7501 9.25121 6.41684 9.33582 6.13896 9.19495L4.00003 7.89719L1.3056 17.7127L5.88901 20.5332L6.94462 11.2254C6.97232 10.9152 7.25018 10.6895 7.55572 10.7178C7.86129 10.746 8.08355 11.0281 8.05562 11.3384L7.00002 20.5051L12 18.8408V16.8946C12 16.5843 12.25 16.3306 12.5555 16.3306C12.8611 16.3306 13.111 16.5844 13.111 16.8946V18.8689L18.111 20.5614L17.0554 11.3382C17.0277 11.0279 17.2499 10.7458 17.5553 10.7177C17.8609 10.6895 18.1387 10.9152 18.1664 11.2253L19.222 20.4484L23.6942 17.7125L20.9998 7.89704L18.8608 9.19459C18.583 9.3638 18.2497 9.27919 18.0831 8.99706C17.9164 8.74326 17.9998 8.37654 18.2776 8.23546L21.6942 6.14821L25 18.2488Z" fill="white"/>
</svg>
