<svg width="404" height="102" viewBox="0 0 404 102" xmlns="http://www.w3.org/2000/svg">
<g clip-path="url(#clip0_178_91)">
<path d="M254.849 85.3516H243.901V76.8018C237.9 82.0508 230.249 85.3516 221.699 85.3516C203.398 85.3516 188.55 70.5029 188.55 52.2021C188.55 33.9014 203.398 19.0527 221.699 19.0527C240 19.0527 254.849 33.9014 254.849 52.2021V85.3516ZM221.851 7.5C197.549 7.5 177.9 27.2998 177.9 51.4502C177.9 75.7519 197.549 95.4004 221.851 95.4004C228.452 95.4004 234.751 93.9014 240.303 91.3525L243.301 92.5537L265.649 101.851V51.4502C265.649 27.2998 246.001 7.5 221.851 7.5" fill="#646464"/>
<path d="M38.8477 77.8516C24.5996 77.8516 13.0518 66.1523 13.0518 51.9043C13.0518 37.6514 24.5996 25.9521 38.8477 25.9521C53.2519 25.9521 64.7998 37.6514 64.7998 51.9043C64.7998 66.1523 53.2519 77.8516 38.8477 77.8516ZM38.8477 13.0518C17.4023 13.0518 0 30.4541 0 51.9043C0 73.3545 17.4023 90.752 38.8477 90.752C48.9014 90.752 57.9004 87.002 64.7998 80.8545V90.752H77.8516V51.9043C77.8516 30.4541 60.4492 13.0518 38.8477 13.0518Z" fill="#646464"/>
<path d="M88.1982 90.752H101.099V0H88.1982V90.752Z" fill="#646464"/>
<path d="M390.151 90.752H403.052V0H390.151V90.752Z" fill="#646464"/>
<path d="M150.303 77.8516C136.05 77.8516 124.502 66.1523 124.502 51.9043C124.502 37.6514 136.05 25.9521 150.303 25.9521C157.5 25.9521 163.95 28.9502 168.75 33.6035L177.9 24.4531C170.85 17.4023 161.099 13.0518 150.303 13.0518C128.853 13.0518 111.45 30.4541 111.45 51.9043C111.45 73.3545 128.853 90.752 150.303 90.752C161.099 90.752 170.85 86.4014 177.9 79.3506L168.75 70.2002C163.95 74.8535 157.5 77.8516 150.303 77.8516Z" fill="#646464"/>
<path d="M289.053 13.0518V0H276.152V90.752H289.053V25.9521H301.948V13.0518" fill="#646464"/>
<path d="M340.801 25.9521C352.949 25.9521 363.003 34.2041 366.001 45.4541H315.752C318.75 34.2041 328.799 25.9521 340.801 25.9521V25.9521ZM360.449 68.7012C355.801 74.2529 348.75 77.8516 340.801 77.8516C328.799 77.8516 318.75 69.6045 315.752 58.3545H379.199C379.502 56.25 379.8 54.1504 379.8 51.9043C379.8 30.4541 362.402 13.0518 340.801 13.0518C319.351 13.0518 301.948 30.4541 301.948 51.9043C301.948 73.3545 319.351 90.752 340.801 90.752C356.25 90.752 369.6 81.7529 375.898 68.7012" fill="#646464"/>
<path d="M221.699 29.7021C209.253 29.7021 199.199 39.751 199.199 52.2021C199.199 64.6533 209.253 74.7021 221.699 74.7021C234.15 74.7021 244.199 64.6533 244.199 52.2021C244.199 39.751 234.15 29.7021 221.699 29.7021" fill="#646464"/>
</g>
<defs>
<clipPath id="clip0_178_91">
<rect width="403.052" height="101.851" fill="white"/>
</clipPath>
</defs>
</svg>