<svg width="42" height="51" viewBox="0 0 42 51" xmlns="http://www.w3.org/2000/svg">
<path d="M34.3794 27.0634C34.4497 34.63 41.0219 37.148 41.0947 37.1801C41.0392 37.3577 40.0446 40.7685 37.6322 44.2915C35.5468 47.3374 33.3824 50.3722 29.9728 50.435C26.6226 50.4967 25.5453 48.4497 21.715 48.4497C17.8859 48.4497 16.689 50.3722 13.5176 50.4967C10.2265 50.6212 7.72034 47.203 5.61758 44.1683C1.32085 37.9606 -1.96275 26.6269 2.44629 18.9765C4.63661 15.1773 8.55087 12.7715 12.7994 12.7098C16.0312 12.6482 19.0816 14.8825 21.0573 14.8825C23.0316 14.8825 26.7385 12.1955 30.6355 12.5901C32.2668 12.658 36.8462 13.2487 39.7867 17.5498C39.5498 17.6966 34.3226 20.7375 34.3794 27.0634V27.0634ZM28.083 8.48325C29.8303 6.36972 31.0063 3.4275 30.6855 0.5C28.1669 0.601153 25.1214 2.17713 23.3149 4.28949C21.696 6.16009 20.2781 9.1541 20.6607 12.0237C23.4679 12.2407 26.3357 10.5981 28.083 8.48325" fill="#646464"/>
</svg>