<svg width="42" height="51" viewBox="0 0 42 51" fill="none" xmlns="http://www.w3.org/2000/svg">
<path d="M34.3789 27.0634C34.4492 34.63 41.0214 37.148 41.0943 37.1801C41.0387 37.3577 40.0441 40.7685 37.6317 44.2915C35.5463 47.3374 33.3819 50.3722 29.9723 50.435C26.6221 50.4967 25.5448 48.4497 21.7145 48.4497C17.8854 48.4497 16.6885 50.3722 13.5171 50.4967C10.226 50.6212 7.71985 47.203 5.61709 44.1683C1.32036 37.9606 -1.96323 26.6269 2.4458 18.9765C4.63612 15.1773 8.55038 12.7715 12.799 12.7098C16.0307 12.6482 19.0811 14.8825 21.0568 14.8825C23.0311 14.8825 26.738 12.1955 30.635 12.5901C32.2664 12.658 36.8457 13.2487 39.7862 17.5498C39.5493 17.6966 34.3221 20.7375 34.3789 27.0634V27.0634ZM28.0825 8.48325C29.8298 6.36972 31.0058 3.4275 30.685 0.5C28.1664 0.601153 25.1209 2.17713 23.3144 4.28949C21.6955 6.16009 20.2776 9.1541 20.6602 12.0237C23.4674 12.2407 26.3352 10.5981 28.0825 8.48325" fill="#646464"/>
</svg>
