<svg width="295" height="164" viewBox="0 0 295 164" xmlns="http://www.w3.org/2000/svg">
<g clip-path="url(#clip0_177_76)">
<path d="M246.898 69.0891C233.87 69.1737 221.532 69.2777 218.091 68.972C211.131 68.3671 206.48 63.8141 205.941 57.1146C205.576 52.7177 205.576 49.0752 205.921 45.6084C206.552 39.0846 212.009 32.8729 218.091 32.5737C220.27 32.4566 226.098 32.4697 236.654 32.5152L267.374 32.5737V19.8317C267.374 19.8317 242.905 19.8057 235.548 19.7732C225.675 19.7277 220.706 19.7211 217.557 19.8317C210.63 20.0984 204.828 22.5635 200.321 27.1426C196.048 31.468 193.498 38.3496 193.121 45.3157C192.906 49.0752 192.834 53.986 193.121 56.9065C193.83 64.3995 196.256 70.2794 200.321 74.3967C204.666 78.8196 211.281 81.623 217.564 81.7075C222.722 81.7726 267.374 81.7075 267.374 81.7075V68.972C267.374 68.972 253.813 69.0241 246.899 69.0891" fill="#646464"/>
<path d="M108.219 20.5147V33.2437H138.53V81.4865H151.324V33.2437H181.634V20.5147H108.219Z" fill="#646464"/>
<path d="M94.931 44.5873C94.8399 37.7317 92.4203 31.8517 87.7306 27.0971C82.8394 22.1212 75.3789 20.0529 70.4941 19.7927C66.2468 19.552 49.5111 19.6301 45.5825 19.7927C40.0473 20.0269 36.0146 21.679 33.9917 23.188C33.9723 23.2011 33.9526 23.1945 33.9526 23.1619V-2.83356e-05H21.1521V81.7075H33.9331C33.9331 81.7075 33.6795 48.2622 33.9657 44.6198C34.473 38.148 39.3838 33.0615 45.6475 32.5152C50.6688 32.0859 65.7394 32.203 70.468 32.5217C76.9594 32.9705 81.7531 38.0439 82.1304 44.88C82.254 47.3972 82.1246 81.7076 82.1246 81.7076H94.9316C94.9316 81.7076 94.9642 47.5273 94.9316 44.5873" fill="#646464"/>
<path d="M284.507 142.471C287.154 142.445 289.626 141.925 289.619 139.791C289.619 139.427 289.671 139.004 289.521 138.523C289.164 137.801 288.695 137.84 288.227 137.905L288.396 137.866C288.396 137.866 286.718 138.328 285.359 138.347H285.32C283.921 138.302 283.518 136.91 283.446 135.375C283.42 135.115 283.414 134.835 283.42 134.529C283.453 132.181 284.181 128.61 284.656 126.614C284.799 125.905 285.228 125.417 286.061 125.358C290.1 125.046 295.115 124.981 294.998 122.568C294.998 122.561 294.992 122.542 294.998 122.529C294.992 120.447 292.962 119.986 291.388 119.947C291.33 119.947 291.284 119.947 291.232 119.947C290.601 119.953 287.011 120.356 287.004 120.356L286.627 120.402L286.724 120.031C287.095 118.646 287.466 116.994 288.22 115.348C288.35 115.055 288.416 114.737 288.416 114.392C288.429 113.663 288.162 112.85 287.765 112.245C287.381 111.647 286.881 111.27 286.51 111.257H286.458C285.703 111.263 284.988 111.764 284.162 113.085C283.102 114.854 282.523 117.208 281.404 119.843C281.293 120.226 280.962 120.512 280.363 120.558C275.966 121.234 275.361 122.822 275.329 123.908C275.329 123.908 275.329 123.927 275.329 123.96C275.368 125.664 276.135 126.223 277.085 126.262C277.085 126.262 277.091 126.262 277.099 126.262C277.104 126.262 277.112 126.262 277.112 126.262C277.405 126.269 278.218 125.963 278.79 125.95H278.855C279.018 125.957 279.174 125.963 279.33 126.061C279.499 126.165 279.571 126.373 279.558 126.555C279.558 126.653 279.544 126.763 279.519 126.9C279.154 128.409 278.543 132.168 278.51 134.211C278.51 134.406 278.51 134.581 278.524 134.744C278.615 136.949 279.064 139.108 279.981 140.364C281.035 141.736 282.264 142.432 284.326 142.471H284.443C284.462 142.471 284.488 142.471 284.508 142.471L284.507 142.471ZM260.344 128.363C260.26 133.033 257.014 136.038 256.767 140.208C256.747 140.487 256.734 140.748 256.728 141.001C256.754 142.217 256.89 142.9 258.451 143.271C258.777 143.343 259.069 143.375 259.343 143.382C261.164 143.408 261.918 142.029 262.744 140.273C263.544 138.549 264.338 136.52 266.354 135.674L266.705 135.525L266.711 135.921C266.737 139.934 269.111 141.957 271.18 141.983C272.89 141.996 274.464 140.721 274.523 137.795C274.529 137.378 274.504 136.929 274.438 136.448C274.347 136.377 274.25 136.351 274.113 136.344C273.677 136.331 273.092 136.682 272.559 136.695C272.273 136.715 271.947 136.468 271.902 136.058C271.915 135.212 271.967 134.276 271.98 133.339C271.999 131.908 271.921 130.477 271.492 129.456C271.056 128.435 270.36 127.797 268.949 127.765C267.583 127.739 266.451 128.78 265.898 129.319L265.449 129.749L265.455 129.131L265.469 128.545C265.423 127.589 265.261 127.277 264.727 126.62C264.109 126.08 263.459 125.84 262.834 125.827C261.865 125.813 260.929 126.353 260.311 127.362C260.337 127.7 260.343 128.032 260.343 128.363H260.344ZM246.925 131.466C246.886 131.472 245.578 135.681 243.38 135.863C243.38 135.863 241.858 136.11 241.89 134.51C241.851 133.515 242.834 131.934 243.334 131.271C243.952 130.477 245.045 129.046 246.782 128.767L247.042 128.727L247.081 128.988C247.12 129.228 247.14 129.456 247.152 129.671C247.204 130.783 246.938 131.446 246.925 131.466V131.466ZM251.914 125.833C251.816 124.786 249.995 122.574 248.746 122.704C248.616 122.711 248.505 122.73 248.395 122.776L248.356 122.796C244.037 123.901 237.409 129.586 237.767 136.422C237.799 137.144 237.91 137.886 238.111 138.647C238.554 140.24 239.835 141.417 242.261 141.313C242.58 141.3 242.925 141.255 243.269 141.196C244.531 140.852 246.014 140 246.697 139.03L247.172 138.367V139.186C247.172 139.258 247.172 139.336 247.172 139.401C247.276 141.443 248.837 143.213 250.287 143.148C250.788 143.122 251.296 142.894 251.79 142.354C251.959 142.172 251.972 141.931 252.005 141.658C252.304 139.239 252.291 137.073 252.193 135.017C252.109 133.274 251.953 131.602 251.874 129.95C251.809 128.571 251.79 127.192 251.914 125.833H251.914ZM226.436 142.809H226.442C227.951 142.822 229.102 142.178 229.681 140.813C229.948 140.162 230.065 138.308 231.034 135.746C233.161 131.589 236.029 123.797 236.029 123.635C236.485 121.065 234.774 119.712 232.66 120.025C230.54 120.33 230.546 122.73 230.104 125.17C229.174 130.061 225.095 134.627 224.38 139.421V139.479C224.354 141.118 225.167 142.517 226.422 142.809H226.436L226.436 142.809ZM211.918 109.982C207.756 116.636 202.741 128.5 202.585 140.104C202.579 140.383 202.579 140.669 202.579 140.962C202.585 142.133 203.268 142.939 204.953 143.044C204.998 143.044 205.044 143.044 205.089 143.05C206.579 143.05 206.872 142.094 207.19 141.561C207.418 141.209 207.906 138.36 208.192 135.687L208.198 135.661C209.304 130.399 210.754 122.126 213.831 116.714C214.8 115.042 216.588 113.572 216.588 111.862C216.588 111.745 216.583 111.634 216.569 111.524C216.413 110.112 215.04 109.162 213.74 109.149C213.024 109.136 212.354 109.403 211.918 109.982V109.982ZM224.407 107.953C221.35 118.028 215.801 128.227 214.728 140.422C214.728 141.567 215.073 142.484 216.276 142.725C216.413 142.738 216.556 142.751 216.693 142.757C217.662 142.77 218.611 142.419 219.138 141.756C220.563 139.987 219.971 138.328 220.504 135.746C221.291 132.058 223.255 125.924 223.255 125.918C223.255 125.911 226.371 116.324 228.966 111.068C229.148 110.665 229.402 109.91 229.409 109.149C229.414 108.265 229.148 107.426 228.147 106.944L228.141 106.938C227.582 106.658 227.074 106.548 226.632 106.541C225.52 106.528 224.733 107.198 224.407 107.953L224.407 107.953ZM238.587 107.64C238.567 109.351 239.758 111.159 241.54 111.185C242.093 111.198 242.711 111.042 243.381 110.665C244.265 110.027 244.545 109.293 244.558 108.545C244.59 107.172 243.556 105.735 243.381 105.566C243.127 105.305 242.607 104.941 241.442 104.922C241.273 104.922 241.085 104.928 240.889 104.941C240.884 104.941 240.876 104.941 240.87 104.941C239.263 105.227 238.619 106.359 238.587 107.64H238.587ZM193.7 111.276C193.681 112.935 195.04 114.73 196.666 114.763C196.692 114.763 196.706 114.763 196.712 114.763C198.533 114.75 199.476 113.306 199.509 111.777C199.515 110.223 198.598 108.707 196.549 108.668C196.426 108.668 196.296 108.668 196.153 108.688C194.364 109.052 193.733 110.112 193.7 111.276H193.7ZM196.101 124.031C195.502 124.031 194.969 124.298 194.572 125.085C193.655 128.89 190.819 133.749 190.754 138.647C190.74 139.265 190.78 139.882 190.871 140.5C190.969 141.183 191.398 142.673 192.965 142.679C193.031 142.679 193.089 142.679 193.154 142.679C195.086 142.536 195.379 142.087 195.431 141.281C195.301 140.741 195.248 140.208 195.255 139.681C195.339 135.414 199.203 131.609 199.223 127.817C199.223 127.537 199.209 127.257 199.17 126.978C199.008 125.618 197.421 124.044 196.139 124.031H196.1H196.101ZM174.285 141.847C177.336 141.99 177.752 136.253 178.721 134.328C180.828 130.36 183.593 129.287 186.871 128.461C186.871 128.461 188.354 127.875 188.347 126.314C188.353 126.191 188.342 126.061 188.328 125.931C188.055 124.357 187.677 124.09 186.669 123.914C186.331 123.862 185.999 123.843 185.661 123.836C182.389 123.778 179.118 125.709 177.992 127.739L177.583 128.454L177.505 127.635C177.427 126.49 177.537 123.706 175.95 123.752C175.944 123.752 175.931 123.752 175.898 123.752C173.778 123.7 173.205 125.963 173.017 126.711C172.561 129.697 172.204 132.884 172.165 135.843C172.139 137.671 172.236 139.421 172.503 140.956C173.01 141.834 174.168 141.847 174.285 141.847L174.285 141.847ZM159.839 136.207C158.291 137.404 156.6 138.165 155.956 138.178L155.676 138.172L155.637 137.443C155.637 135.414 156.04 134.842 156.782 133.879C157.647 132.76 159.462 131.459 160.756 131.459C161.023 131.466 161.537 131.531 161.771 131.661C162.089 131.817 162.239 132.396 162.226 132.721C162.187 133.755 161.101 135.193 159.839 136.207L159.839 136.207ZM163.82 127.095C162.994 126.809 162.239 126.685 161.55 126.679C158.577 126.627 156.574 128.786 154.531 130.64L153.926 131.193L154.102 130.386C155.631 123.433 156.541 116.714 157.992 109.403C158.011 109.273 158.05 109.006 158.05 108.681C158.05 107.478 157.758 105.572 155.618 105.461C155.546 105.455 155.468 105.455 155.39 105.455C153.692 105.429 152.938 106.723 152.567 107.913C151.956 109.975 151.917 112.74 151.585 115.465C150.538 123.608 148.43 133.45 147.468 140.773C147.819 142.497 148.788 141.944 150.265 142.53L150.259 142.536C150.369 142.575 150.369 142.621 150.389 142.634C150.402 142.66 150.402 142.666 150.408 142.679C150.414 142.692 150.414 142.699 150.414 142.705C150.42 142.725 150.427 142.738 150.433 142.757C150.439 142.79 150.459 142.835 150.479 142.894C150.531 143.004 150.603 143.161 150.733 143.323C150.98 143.635 151.403 144.37 152.209 144.091C159.806 141.801 163.123 140.377 165.842 136.142C166.415 135.173 166.688 134.028 166.701 132.871C166.746 130.308 165.504 127.745 163.819 127.095L163.82 127.095ZM98.262 161.087C98.262 161.353 98.3011 161.633 98.366 161.906C98.7108 163.48 101.065 163.656 101.072 163.656C101.657 163.701 102.236 163.721 102.809 163.721C115.895 163.721 124.006 152.442 124.013 138.692C124.018 136.364 123.785 133.963 123.297 131.544V131.518C123.284 131.518 123.206 130.809 122.783 130.399C122.263 129.976 121.84 129.827 121.476 129.827C120.565 129.801 119.765 130.9 119.069 132.201C118.347 133.489 117.788 134.881 116.897 135.329C116.24 135.622 115.694 135.772 115.225 135.772C113.703 135.746 113.32 134.269 113.313 132.539C113.313 131.232 113.521 129.658 113.703 128.116C113.717 128.018 113.723 127.914 113.723 127.81C113.697 127.101 113.495 126.113 112.129 125.989C112.077 125.989 112.025 125.989 111.967 125.989C110.197 125.996 109.671 127.238 109.436 128.136C109.176 129.222 108.532 130.893 108.532 133.267C108.532 135.635 109.001 137.443 109.001 137.443C109.664 139.642 110.698 140.468 111.869 141.014C112.428 141.229 113.007 141.326 113.58 141.326C115.629 141.554 118.003 140.669 118.198 139.869C117.97 142.387 117.749 144.696 117.164 147.018C116.266 150.114 115.173 151.727 114.347 152.794C111.225 156.436 106.295 158.986 100.974 158.986C100.792 158.986 100.61 158.986 100.46 158.979C98.7433 159.142 98.288 160.033 98.262 161.087L98.262 161.087ZM103.596 112.239C102.496 112.883 102.334 114.041 101.807 115.576C101.495 116.454 97.1497 136.955 97.1627 139.447C97.1627 139.447 97.1627 139.46 97.1627 139.486C96.9611 142.439 98.9384 143.258 98.9384 143.258C99.1596 143.304 99.875 143.323 99.875 143.323C101.482 143.349 102.145 141.573 102.425 140.617C103.036 138.445 103.004 135.85 103.511 133.189C104.272 129.202 107.023 118.015 107.218 116.376C107.31 115.654 107.433 115.049 107.433 114.418C107.57 112.753 106.002 111.784 105.098 111.777C104.63 111.777 104.116 111.933 103.596 112.239V112.239ZM84.9078 142.146C86.651 142.081 87.7502 141.476 87.7632 139.882V139.817C87.7497 138.946 87.1518 138.393 86.3713 137.769C85.89 137.372 85.5322 137.008 85.4412 135.453C85.4277 135.232 85.4152 134.985 85.4152 134.711C85.4209 132.129 86.1307 127.264 86.5925 125.215C86.7161 124.506 87.1258 123.914 87.9974 123.927C88.6218 123.921 89.7081 123.856 90.2284 123.843C90.7878 123.836 92.2838 123.882 93.6237 123.576C94.9831 123.257 96.0563 122.646 96.0498 121.365C96.0498 121.358 96.0498 121.332 96.0498 121.319C95.9978 119.179 94.3196 119.101 92.7716 119.075C92.713 119.075 88.4462 119.342 88.4462 119.342L88.5699 118.971C89.0056 117.651 89.5455 115.875 90.4236 114.184C90.7943 113.585 92.0692 109.208 88.5048 109.208C87.4901 109.345 86.5535 110.418 85.6364 112.382C84.5566 114.782 84.5241 115.816 83.2428 118.886C83.1517 119.244 82.8135 119.641 82.1696 119.615C80.9858 119.634 80.1207 119.797 79.2426 119.797C78.9499 119.797 78.5922 119.843 78.2735 119.79C77.636 119.79 76.9661 120.259 76.9661 120.259C76.7384 120.538 76.3222 120.734 76.1986 121.807V121.865C76.2246 123.582 76.901 124.558 77.7336 124.545C77.7336 124.545 80.7711 124.63 80.8036 124.63C80.9598 124.636 81.1159 124.643 81.272 124.74C81.428 124.851 81.4996 125.052 81.4931 125.222C81.4931 125.326 81.4737 125.436 81.4477 125.573C81.0834 127.192 80.2964 132.838 80.2964 134.783C80.2964 134.835 80.2964 134.874 80.3022 134.913C80.3802 138.412 81.4014 142.172 84.8097 142.146C84.8232 142.146 84.8422 142.139 84.8552 142.139C84.8746 142.139 84.8942 142.146 84.9071 142.146L84.9078 142.146ZM64.7112 131.589L64.7437 131.362C65.0949 129.293 67.2739 127.596 68.4121 127.557C68.4316 127.557 68.4641 127.557 68.5032 127.563C69.1081 127.628 69.4334 128.149 69.4334 128.604C69.4334 128.63 69.4334 128.649 69.4334 128.682C69.4334 130.51 67.0788 131.628 65.7454 131.687C65.6283 131.687 65.0364 131.674 64.9389 131.654L64.7112 131.589L64.7112 131.589ZM75.2157 134.724C75.0726 134.464 74.8449 134.295 74.6498 134.295C74.4936 134.295 74.24 134.276 73.8888 134.627C72.3603 136.142 71.2285 138.107 68.6138 138.113C68.6138 138.113 68.5943 138.113 68.5618 138.12C66.7145 138.139 66.0771 137.196 65.7389 135.616L65.6803 135.381L65.9145 135.303C67.5861 135.043 72.9522 133.404 72.9132 129.111C72.9132 128.454 72.7961 127.726 72.5229 126.919C71.918 125.144 70.4155 124.402 68.6333 124.396C65.5373 124.382 62.3566 126.529 61.5501 129.937L61.5175 130.341L61.1663 130.145C60.8866 129.996 60.6264 129.931 60.3728 129.931C59.3321 129.931 58.4084 131.128 58.4019 132.233C58.4077 132.324 58.4077 132.409 58.4214 132.487C58.6815 133.937 59.332 134.79 60.3792 135.414L60.5092 135.485V135.642C60.5092 135.694 60.5034 135.739 60.5034 135.785C60.5228 140.461 63.6385 142.426 67.0793 142.445C71.034 142.439 75.2617 139.752 75.3528 135.329C75.3528 135.329 75.3528 134.965 75.2163 134.724L75.2157 134.724ZM5.65881 137.313C5.65881 137.313 5.1905 137.248 5.00837 137.112C4.47503 136.728 4.24086 136.149 4.24737 135.531C4.27337 133.274 6.95319 130.035 8.66383 128.305C10.2639 126.711 11.0704 126.087 11.8835 126.067C12.1632 126.067 12.4168 126.158 12.6575 126.295C13.0477 126.503 13.1973 126.932 13.1973 127.394C13.1128 130.249 8.23454 137.19 5.65881 137.313V137.313ZM19.0317 125.287C19.0375 124.331 18.674 123.426 18.6675 123.407C17.4707 121.527 15.9292 120.766 14.199 120.76C11.207 120.753 7.6231 123.153 4.82625 126.451C2.01637 129.742 -0.00647521 133.905 1.55755e-05 137.313C1.55755e-05 139.473 0.787058 141.3 2.66029 142.504C3.23268 142.777 3.79855 142.907 4.35793 142.907C7.40196 142.933 10.3615 139.108 12.2152 137.443L12.6315 137.086L12.612 137.632C12.2868 146.27 9.45739 161.269 9.45739 161.334C9.46317 162.862 10.5111 163.831 11.6754 163.831C12.1437 163.831 12.6445 163.675 13.0998 163.324C15.4544 161.015 15.2983 156.449 15.9617 152.033C17.0415 144.956 16.5862 137.255 17.9846 130.672C18.4204 128.649 18.9082 126.601 18.9733 125.937C18.9733 125.937 19.0318 125.495 19.0318 125.287H19.0317ZM35.6829 137.144C36.4245 140.533 36.5675 142.549 40.945 143.187C41.2767 143.193 41.771 142.946 42.1548 142.517C42.545 142.094 42.8182 141.509 42.8182 140.884C42.8182 140.695 42.7987 140.513 42.7531 140.344C42.3043 139.043 41.4847 138.972 40.9384 137.508C40.6067 136.591 40.5026 135.564 40.5026 134.51C40.5026 132.246 40.9969 129.827 40.9904 128.005C40.945 126.171 40.6002 125.144 38.8245 125.118C38.7205 125.118 38.6033 125.124 38.4797 125.137C38.4277 125.124 37.7513 125.358 37.296 126.171C35.2471 129.69 33.0941 134.679 29.4387 135.024C28.7753 134.92 28.5346 134.276 28.5541 133.58C28.5599 131.31 30.4859 126.789 31.416 124.083C31.4941 123.791 31.5266 123.517 31.5266 123.264C31.5266 121.742 29.894 120.799 28.8468 120.805C27.7931 120.812 26.7069 121.326 26.0629 122.548C25.1848 124.174 23.9295 129.3 23.936 133.768C23.936 135.83 24.2027 137.756 24.8596 139.134C25.5361 140.513 26.5313 141.333 28.1183 141.339C28.2029 141.339 28.2874 141.339 28.372 141.333C31.3575 141.19 33.2047 138.445 35.2796 136.981L35.5983 136.76L35.6829 137.144L35.6829 137.144ZM49.2445 141.743C50.2722 141.743 51.0462 141.489 51.2153 140.839C52.0674 135.713 53.1406 132.363 54.3114 127.947C54.3699 127.661 54.4025 127.388 54.4025 127.114C54.389 125.651 53.5699 124.487 52.1715 124.487C51.7162 124.487 51.1828 124.617 50.6104 124.896C47.9177 126.685 47.1632 133.976 46.5257 139.252C46.5199 139.317 46.5199 139.395 46.5199 139.479C46.5199 140.604 47.2614 141.502 48.185 141.665C48.5428 141.71 48.9005 141.743 49.2453 141.743L49.2445 141.743ZM53.2389 110.034C52.6405 110.632 52.3999 111.634 52.3999 112.337C52.4057 114.255 54.2341 115.738 55.9968 115.738C57.122 115.732 58.4749 115.172 58.7806 113.689C58.7864 113.618 58.7864 113.553 58.7864 113.488C58.7864 111.569 57.1408 109.371 55.17 109.371C54.5456 109.371 53.8756 109.579 53.2382 110.034H53.2389ZM287.232 119.569L286.978 119.504L287.232 119.569Z" fill="#646464"/>
</g>
<defs>
<clipPath id="clip0_177_76">
<rect width="295" height="163.831" fill="white"/>
</clipPath>
</defs>
</svg>