<svg width="47" height="47" viewBox="0 0 47 47" xmlns="http://www.w3.org/2000/svg">
<path d="M14.7552 38.8841V43.1849C14.7552 44.4065 14.1388 45.0583 13.0187 45.0583C11.8922 45.0583 11.2721 44.3877 11.2721 43.1327V38.8888H9.72241V43.1849C9.72241 45.2987 10.9164 46.51 12.9982 46.51C15.0997 46.51 16.3049 45.2755 16.3049 43.1229V38.8841H14.7552ZM20.4568 38.8841L17.091 46.3929H18.6729L19.3226 44.9387L19.3691 44.8297H22.8657L23.5514 46.3929H25.1763L21.8418 38.9285L21.8118 38.884L20.4568 38.8841ZM29.6711 38.8841L27.9367 44.0506L26.2484 38.8879H24.5992L27.2614 46.3976H28.5447L30.2825 41.4644L32.0191 46.3976H33.3132L35.9689 38.8879H34.3619L32.6701 44.0506L30.9352 38.8841H29.6711ZM44.8364 38.8841V46.3865H46.3656V38.8841H44.8364ZM0.973145 38.8845V46.3972H2.52327V43.346H6.02332V46.3972H7.57388V38.8845H6.02332V41.9152H2.52327V38.8845H0.973145ZM37.2187 38.8896V46.392H42.9881V45.0241H38.748V43.1639H41.5675V41.7955H38.748V40.2575H42.8404V38.8896H37.2187ZM21.1134 40.7853L22.2186 43.3006H22.2147L22.2899 43.4741H19.9454L20.0196 43.3006H20.0183L21.1134 40.7853Z" fill="#AAAAAA"/>
<path d="M20.276 0.490102C19.6611 0.543583 17.9996 0.915482 17.9996 0.915482H17.9989C14.2539 1.86737 13.3687 5.20936 13.3687 5.20936C13.1858 5.77133 13.1028 6.34726 13.0783 6.88986V7.62837C13.128 8.76938 13.3861 9.62137 13.3861 9.62137C14.637 15.0761 20.7878 24.0389 22.1097 25.9218C22.2035 26.0132 22.2786 25.9802 22.2786 25.9802C22.4213 25.9415 22.4101 25.8069 22.4101 25.8069L22.4128 25.8075C24.4489 5.79482 20.276 0.490122 20.276 0.490122L20.276 0.490102ZM27.0036 0.490102C27.0036 0.490102 22.8124 5.79763 24.8501 25.822H24.8528C24.8686 25.9491 24.9603 25.9756 24.9603 25.9756C25.0966 26.0275 25.1665 25.8987 25.1665 25.8987L25.1672 25.9C26.523 23.9691 32.6388 15.055 33.8842 9.62127C33.8842 9.62127 34.5595 6.99131 33.9076 5.20925C33.9076 5.20925 32.9818 1.81551 29.232 0.918671C29.232 0.918671 28.1514 0.648909 27.0037 0.490005L27.0036 0.490102ZM7.67178 6.49796C7.67178 6.49796 4.10346 9.82842 3.9261 13.3592H3.92752V13.8942C3.93023 13.9345 3.9323 13.9753 3.93489 14.0163C4.0886 16.8634 6.26667 18.5485 6.26667 18.5485C9.77601 21.9118 18.2734 26.1582 20.248 27.1217C20.2757 27.1319 20.3777 27.1647 20.4376 27.0902C20.4376 27.0902 20.4688 27.067 20.483 27.0252V26.9365C20.4816 26.9314 20.4789 26.9264 20.4763 26.9208H20.477C15.0695 15.3044 7.67185 6.49784 7.67185 6.49784L7.67178 6.49796ZM39.5991 6.49796C39.5991 6.49796 32.2238 15.2769 26.8187 26.8697L26.8208 26.869C26.8208 26.869 26.7569 27.0034 26.8602 27.0902C26.8602 27.0902 26.891 27.1131 26.9336 27.1224H27.0084C27.0218 27.1186 27.0362 27.1135 27.0504 27.104V27.1052C29.0786 26.1153 37.5103 21.8969 41.0031 18.549C41.0031 18.549 43.215 16.8023 43.3308 13.9978C43.5863 10.1027 39.5992 6.49783 39.5992 6.49783L39.5991 6.49796ZM46.2373 18.0305C46.2373 18.0305 34.2133 24.3759 27.9963 28.4997L27.997 28.5003L27.9984 28.5016C27.9984 28.5016 27.8856 28.5743 27.925 28.7044C27.925 28.7044 27.9839 28.8095 28.0698 28.8095V28.8102C30.2966 28.814 38.7231 28.8233 38.9343 28.7845C38.9343 28.7845 40.0239 28.7417 41.3703 28.2331C41.3703 28.2331 44.3675 27.296 45.9243 23.9497C45.9243 23.9497 46.6357 22.5505 46.646 20.5848V20.5014C46.6408 19.7433 46.5322 18.9041 46.2374 18.0305H46.2373ZM1.03023 18.0601C-0.0637803 21.3906 1.40903 24.0742 1.41141 24.0785C2.94626 27.2676 5.87604 28.2338 5.87604 28.2338C7.2287 28.7803 8.58166 28.8181 8.58166 28.8181C8.79292 28.8561 16.9949 28.8219 19.1925 28.8117C19.2855 28.8111 19.3367 28.7191 19.3367 28.7191C19.3432 28.709 19.3488 28.6988 19.3514 28.6895V28.6062C19.3332 28.5504 19.2846 28.5111 19.2846 28.5111L19.2861 28.5104C13.0722 24.388 1.03033 18.0603 1.03033 18.0603L1.03023 18.0601ZM18.9415 29.8356L4.7966 30.3233C6.33055 33.0123 8.91392 35.1021 11.605 34.4603C13.4622 34.0037 17.6694 31.1179 19.0583 30.1428L19.0537 30.139C19.1617 30.0436 19.1231 29.967 19.1231 29.967C19.0876 29.8421 18.9415 29.8423 18.9415 29.8423L18.9415 29.8356ZM28.31 29.8457L28.3086 29.8508C28.3086 29.8508 28.1844 29.8663 28.1497 29.9578C28.1497 29.9578 28.1196 30.0828 28.2031 30.1449L28.2017 30.1461C29.556 31.1011 33.6612 33.9235 35.639 34.4715C35.639 34.4715 35.9386 34.5717 36.4407 34.5897H36.7425C38.0675 34.5439 40.3759 33.8745 42.4735 30.3306L28.31 29.8457Z" fill="#646464"/>
</svg>