<svg width="47" height="47" viewBox="0 0 47 47" fill="none" xmlns="http://www.w3.org/2000/svg">
<path d="M14.7547 38.8843V43.1851C14.7547 44.4067 14.1383 45.0586 13.0182 45.0586C11.8917 45.0586 11.2716 44.3879 11.2716 43.133V38.889H9.72192V43.1851C9.72192 45.2989 10.9159 46.5103 12.9977 46.5103C15.0992 46.5103 16.3044 45.2757 16.3044 43.1231V38.8843H14.7547ZM20.4563 38.8843L17.0905 46.3932H18.6724L19.3221 44.9389L19.3686 44.8299H22.8652L23.5509 46.3931H25.1758L21.8413 38.9287L21.8113 38.8843L20.4563 38.8843ZM29.6706 38.8843L27.9362 44.0509L26.2479 38.8882H24.5987L27.2609 46.3979H28.5442L30.282 41.4646L32.0186 46.3979H33.3127L35.9684 38.8882H34.3614L32.6696 44.0509L30.9347 38.8843H29.6706ZM44.8359 38.8843V46.3867H46.3652V38.8843H44.8359ZM0.972656 38.8847V46.3974H2.52278V43.3462H6.02284V46.3974H7.57339V38.8847H6.02284V41.9155H2.52278V38.8847H0.972656ZM37.2183 38.8898V46.3923H42.9876V45.0244H38.7475V43.1641H41.567V41.7958H38.7475V40.2578H42.8399V38.8898H37.2183ZM21.113 40.7855L22.2181 43.3009H22.2142L22.2894 43.4744H19.9449L20.0191 43.3009H20.0179L21.113 40.7855Z" fill="#AAAAAA"/>
<path d="M20.276 0.490331C19.6611 0.543812 17.9996 0.915711 17.9996 0.915711H17.9989C14.2539 1.8676 13.3687 5.20958 13.3687 5.20958C13.1858 5.77156 13.1028 6.34749 13.0783 6.89009V7.6286C13.128 8.76961 13.3861 9.6216 13.3861 9.6216C14.637 15.0763 20.7878 24.0392 22.1097 25.922C22.2035 26.0134 22.2786 25.9804 22.2786 25.9804C22.4213 25.9417 22.4101 25.8071 22.4101 25.8071L22.4128 25.8078C24.4489 5.79505 20.276 0.490351 20.276 0.490351L20.276 0.490331ZM27.0036 0.490331C27.0036 0.490331 22.8124 5.79786 24.8501 25.8222H24.8528C24.8686 25.9493 24.9603 25.9758 24.9603 25.9758C25.0966 26.0278 25.1665 25.899 25.1665 25.899L25.1672 25.9002C26.523 23.9693 32.6388 15.0553 33.8842 9.6215C33.8842 9.6215 34.5595 6.99154 33.9076 5.20948C33.9076 5.20948 32.9818 1.81574 29.232 0.9189C29.232 0.9189 28.1514 0.649138 27.0037 0.490234L27.0036 0.490331ZM7.67178 6.49819C7.67178 6.49819 4.10346 9.82865 3.9261 13.3594H3.92752V13.8945C3.93023 13.9347 3.9323 13.9755 3.93489 14.0165C4.0886 16.8636 6.26667 18.5487 6.26667 18.5487C9.77601 21.9121 18.2734 26.1584 20.248 27.122C20.2757 27.1321 20.3777 27.1649 20.4376 27.0905C20.4376 27.0905 20.4688 27.0672 20.483 27.0254V26.9367C20.4816 26.9317 20.4789 26.9266 20.4763 26.921H20.477C15.0695 15.3046 7.67185 6.49807 7.67185 6.49807L7.67178 6.49819ZM39.5991 6.49819C39.5991 6.49819 32.2238 15.2771 26.8187 26.8699L26.8208 26.8692C26.8208 26.8692 26.7569 27.0036 26.8602 27.0905C26.8602 27.0905 26.891 27.1133 26.9336 27.1226H27.0084C27.0218 27.1188 27.0362 27.1137 27.0504 27.1042V27.1054C29.0786 26.1156 37.5103 21.8971 41.0031 18.5492C41.0031 18.5492 43.215 16.8025 43.3308 13.9981C43.5863 10.1029 39.5992 6.49806 39.5992 6.49806L39.5991 6.49819ZM46.2373 18.0308C46.2373 18.0308 34.2133 24.3761 27.9963 28.4999L27.997 28.5005L27.9984 28.5018C27.9984 28.5018 27.8856 28.5745 27.9249 28.7047C27.9249 28.7047 27.9839 28.8097 28.0698 28.8097V28.8104C30.2966 28.8142 38.7231 28.8235 38.9343 28.7847C38.9343 28.7847 40.0239 28.7419 41.3703 28.2333C41.3703 28.2333 44.3675 27.2963 45.9243 23.95C45.9243 23.95 46.6357 22.5507 46.646 20.585V20.5017C46.6408 19.7436 46.5322 18.9043 46.2374 18.0308H46.2373ZM1.03023 18.0604C-0.0637803 21.3908 1.40903 24.0744 1.41141 24.0787C2.94626 27.2678 5.87604 28.2341 5.87604 28.2341C7.2287 28.7805 8.58166 28.8183 8.58166 28.8183C8.79292 28.8563 16.9949 28.8221 19.1925 28.812C19.2855 28.8113 19.3367 28.7193 19.3367 28.7193C19.3432 28.7092 19.3488 28.699 19.3514 28.6898V28.6064C19.3332 28.5507 19.2846 28.5113 19.2846 28.5113L19.2861 28.5106C13.0722 24.3882 1.03033 18.0605 1.03033 18.0605L1.03023 18.0604ZM18.9415 29.8358L4.7966 30.3236C6.33055 33.0126 8.91392 35.1024 11.605 34.4605C13.4622 34.004 17.6694 31.1182 19.0583 30.143L19.0537 30.1392C19.1617 30.0438 19.1231 29.9672 19.1231 29.9672C19.0876 29.8424 18.9415 29.8425 18.9415 29.8425L18.9415 29.8358ZM28.31 29.846L28.3086 29.8511C28.3086 29.8511 28.1844 29.8665 28.1497 29.958C28.1497 29.958 28.1196 30.083 28.2031 30.1451L28.2017 30.1464C29.556 31.1013 33.6612 33.9237 35.639 34.4717C35.639 34.4717 35.9386 34.572 36.4407 34.5899H36.7425C38.0675 34.5442 40.3759 33.8748 42.4735 30.3308L28.31 29.846Z" fill="#646464"/>
</svg>
