<svg width="159" height="33" viewBox="0 0 159 33" xmlns="http://www.w3.org/2000/svg">
<path d="M66.8678 7.18909C64.0148 7.18909 60.7701 8.51164 58.7876 11.1594L58.789 11.1541L58.7876 11.1554L58.789 7.6049H51.9844V32.3847H58.7876V18.2846C58.7876 15.7468 60.7554 13.0494 64.3984 13.0494C67.2139 13.0494 70.1273 15.0077 70.1273 18.2846V32.3847H76.9319V17.0238C76.9319 11.3244 72.8542 7.18909 66.8678 7.18909Z" fill="#646464"/>
<path d="M125.294 7.60593L119.142 24.4853L112.991 7.60593H105.218L115.413 32.3777H122.87L133.065 7.60593H125.294Z" fill="#646464"/>
<path d="M31.6704 15.0709C32.8293 13.5149 34.675 12.6015 36.9043 12.6015C39.3562 12.6015 41.2167 14.0018 42.1784 16.0688L30.2901 21.0009C29.9655 18.4698 30.6134 16.49 31.6704 15.0709ZM44.743 24.766C41.8793 26.8854 40.2428 27.391 37.6313 27.391C35.2812 27.391 33.4409 26.6614 32.1439 25.3817L49.5396 18.1653C49.16 15.476 48.1393 13.0736 46.5686 11.2467C44.283 8.59221 40.9001 7.18784 36.7809 7.18784C29.2989 7.18784 23.6572 12.7074 23.6572 19.9976C23.6572 27.4769 29.3123 32.806 37.5307 32.806C42.1355 32.806 46.8436 30.6237 49.046 28.0738L44.743 24.766Z" fill="#646464"/>
<path d="M23.0088 26.1368H7.54315V0.194H0.645996V32.3847H23.0088V26.1368Z" fill="#646464"/>
<path d="M145.284 13.0188C141.484 13.0188 138.724 15.8986 138.724 19.9951C138.724 23.9064 141.647 26.9714 145.375 26.9714C149.176 26.9714 151.934 24.0124 151.934 19.9951C151.934 16.0837 149.012 13.0188 145.284 13.0188ZM145.284 32.8021C137.842 32.8021 132.011 27.2584 132.011 19.9951C132.011 12.8136 137.882 7.18799 145.375 7.18799C152.816 7.18799 158.646 12.7317 158.646 19.9951C158.646 27.1752 152.776 32.8021 145.284 32.8021Z" fill="#646464"/>
<path d="M92.895 13.0188C89.095 13.0188 86.3372 15.8986 86.3372 19.9951C86.3372 23.9064 89.2586 26.9714 92.9875 26.9714C96.7875 26.9714 99.5453 24.0124 99.5453 19.9951C99.5453 16.0837 96.6239 13.0188 92.895 13.0188ZM92.895 32.8021C85.4532 32.8021 79.6238 27.2584 79.6238 19.9951C79.6238 12.8136 85.4935 7.18799 92.9875 7.18799C100.428 7.18799 106.259 12.7317 106.259 19.9951C106.259 27.1752 100.388 32.8021 92.895 32.8021Z" fill="#646464"/>
</svg>