<svg width="159" height="33" viewBox="0 0 159 33" fill="none" xmlns="http://www.w3.org/2000/svg">
<path d="M66.8688 7.18896C64.0158 7.18896 60.7711 8.51152 58.7886 11.1593L58.7899 11.154L58.7886 11.1553L58.7899 7.60478H51.9854V32.3846H58.7886V18.2845C58.7886 15.7467 60.7563 13.0493 64.3994 13.0493C67.2149 13.0493 70.1283 15.0076 70.1283 18.2845V32.3846H76.9329V17.0236C76.9329 11.3243 72.8552 7.18896 66.8688 7.18896Z" fill="#646464"/>
<path d="M125.294 7.60596L119.142 24.4853L112.991 7.60596H105.218L115.413 32.3778H122.87L133.065 7.60596H125.294Z" fill="#646464"/>
<path d="M31.6713 15.0705C32.8303 13.5146 34.6759 12.6011 36.9052 12.6011C39.3572 12.6011 41.2176 14.0015 42.1794 16.0685L30.2911 21.0006C29.9665 18.4695 30.6144 16.4897 31.6713 15.0705ZM44.744 24.7657C41.8803 26.885 40.2438 27.3907 37.6322 27.3907C35.2822 27.3907 33.4419 26.661 32.1448 25.3814L49.5406 18.165C49.161 15.4756 48.1403 13.0733 46.5696 11.2464C44.2839 8.59188 40.9011 7.1875 36.7818 7.1875C29.2999 7.1875 23.6582 12.7071 23.6582 19.9973C23.6582 27.4765 29.3133 32.8057 37.5316 32.8057C42.1364 32.8057 46.8445 30.6233 49.047 28.0734L44.744 24.7657Z" fill="#646464"/>
<path d="M23.0092 26.1366H7.54364V0.193848H0.646484V32.3846H23.0092V26.1366Z" fill="#646464"/>
<path d="M145.284 13.0188C141.484 13.0188 138.725 15.8986 138.725 19.9951C138.725 23.9064 141.648 26.9714 145.375 26.9714C149.177 26.9714 151.935 24.0124 151.935 19.9951C151.935 16.0837 149.013 13.0188 145.284 13.0188ZM145.284 32.8021C137.843 32.8021 132.012 27.2584 132.012 19.9951C132.012 12.8136 137.883 7.18799 145.375 7.18799C152.817 7.18799 158.647 12.7317 158.647 19.9951C158.647 27.1752 152.777 32.8021 145.284 32.8021Z" fill="#646464"/>
<path d="M92.8952 13.0188C89.0952 13.0188 86.3374 15.8986 86.3374 19.9951C86.3374 23.9064 89.2588 26.9714 92.9878 26.9714C96.7878 26.9714 99.5455 24.0124 99.5455 19.9951C99.5455 16.0837 96.6241 13.0188 92.8952 13.0188ZM92.8952 32.8021C85.4535 32.8021 79.624 27.2584 79.624 19.9951C79.624 12.8136 85.4937 7.18799 92.9878 7.18799C100.428 7.18799 106.259 12.7317 106.259 19.9951C106.259 27.1752 100.388 32.8021 92.8952 32.8021Z" fill="#646464"/>
</svg>
