<svg width="164" height="39" viewBox="0 0 164 39" fill="none" xmlns="http://www.w3.org/2000/svg">
<path d="M103.688 24.2023C100.85 24.2023 98.5403 21.8928 98.5403 19.0546C98.5403 16.2164 100.85 13.907 103.688 13.907C106.526 13.907 108.836 16.2164 108.836 19.0546C108.836 21.9206 106.498 24.2023 103.688 24.2023ZM103.688 10.8462C99.1524 10.8462 95.4795 14.5191 95.4795 19.0546C95.4795 23.5901 99.1524 27.2631 103.688 27.2631C108.223 27.2631 111.896 23.5901 111.896 19.0546C111.896 14.5469 108.223 10.8462 103.688 10.8462Z" fill="#646464"/>
<path d="M93.6434 24.6197H94.3112V27.7083H93.6434C90.1096 27.7083 87.2158 24.8145 87.2158 21.2807V7.17334H90.3044V11.2915H94.2834V14.3801H90.3044V21.3085C90.3044 23.1172 91.807 24.6197 93.6434 24.6197Z" fill="#646464"/>
<path d="M131.263 24.2023C128.425 24.2023 126.115 21.8928 126.115 19.0546C126.115 16.2164 128.425 13.907 131.263 13.907C134.101 13.907 136.411 16.2164 136.411 19.0546C136.383 21.9206 134.073 24.2023 131.263 24.2023ZM131.263 10.8462C126.728 10.8462 123.055 14.5191 123.055 19.0546C123.055 23.5901 126.728 27.2631 131.263 27.2631C135.799 27.2631 139.472 23.5901 139.472 19.0546C139.472 14.5469 135.799 10.8462 131.263 10.8462Z" fill="#646464"/>
<path d="M154.886 24.2023C152.048 24.2023 149.739 21.8928 149.739 19.0546C149.739 16.2164 152.048 13.907 154.886 13.907C157.724 13.907 160.034 16.2164 160.034 19.0546C160.034 21.9206 157.697 24.2023 154.886 24.2023ZM154.886 10.8462C150.351 10.8462 146.678 14.5191 146.678 19.0546C146.678 23.5901 150.351 27.2631 154.886 27.2631C156.89 27.2631 158.726 26.5396 160.145 25.3431V26.957H163.095V19.3051C163.095 19.2216 163.095 19.1381 163.095 19.0546C163.095 14.5469 159.422 10.8462 154.886 10.8462Z" fill="#646464"/>
<path d="M120.383 10.8462H121.857V13.9348H120.383C118.546 13.9348 117.044 15.4374 117.044 17.2738V19.2772V23.0893V27.0683H113.955V17.2738C113.955 13.74 116.849 10.8462 120.383 10.8462Z" fill="#646464"/>
<path d="M144.619 6.75586H141.53V27.0126H144.619V6.75586Z" fill="#646464"/>
<path d="M66.6805 17.6913V27.4579H63.5919V17.6913C63.5919 15.8548 62.0893 14.3523 60.2529 14.3523C58.4164 14.3523 56.9138 15.8548 56.9138 17.6913V27.4579H53.8252V17.6913C53.8252 15.8548 52.3227 14.3523 50.4862 14.3523C48.6497 14.3523 47.1472 15.8548 47.1472 17.6913V27.4579H44.0586V17.6913C44.0586 14.1575 46.9524 11.2637 50.4584 11.2637C52.434 11.2637 54.1591 12.1263 55.3556 13.5175C56.5521 12.1263 58.2773 11.2637 60.2529 11.2637C63.7867 11.2637 66.6805 14.1575 66.6805 17.6913Z" fill="#646464"/>
<path d="M76.9755 24.6198C74.1373 24.6198 71.8279 22.3103 71.8279 19.4721C71.8279 16.6339 74.1373 14.3244 76.9755 14.3244C79.8137 14.3244 82.1232 16.6339 82.1232 19.4721C82.1232 22.3103 79.7859 24.6198 76.9755 24.6198ZM76.9755 11.2637C72.4122 11.2637 68.7393 14.9366 68.7393 19.4721C68.7393 24.0076 72.4122 27.6805 76.9477 27.6805C81.4832 27.6805 85.1561 24.0076 85.1561 19.4721C85.184 14.9644 81.511 11.2637 76.9755 11.2637Z" fill="#646464"/>
<path d="M18.7654 0.829102C8.44229 0.829102 0.0947266 9.17666 0.0947266 19.4998C0.0947266 29.823 8.44229 38.1705 18.7654 38.1705C29.0886 38.1705 37.4361 29.823 37.4361 19.4998C37.4361 9.2323 29.1999 0.829102 18.7654 0.829102Z" fill="#646464"/>
<path d="M24.3305 5.42041L18.7933 23.785L18.7654 23.8129L18.7098 23.785L13.1726 5.42041L6.02148 28.9327H7.35709C7.35709 28.9327 8.2475 24.8424 9.72224 22.3938C10.5292 21.0582 11.7535 19.973 13.3952 20.0008C14.5638 20.0287 15.5655 20.6686 16.8177 22.4216C17.0959 22.8112 17.4298 23.4511 17.7637 24.0633C18.2924 25.0928 18.7376 26.1502 18.7376 26.1502C18.7376 26.1502 19.9063 23.479 20.6575 22.4216C21.9097 20.6686 22.9114 20.0286 24.08 20.0008C25.7217 19.973 26.9739 21.0582 27.753 22.3938C29.2277 24.8424 30.1181 28.9327 30.1181 28.9327H31.4537L24.3305 5.42041Z" fill="#AAAAAA"/>
</svg>
