<svg width="164" height="39" viewBox="0 0 164 39" xmlns="http://www.w3.org/2000/svg">
<path d="M103.688 24.2024C100.85 24.2024 98.5403 21.8929 98.5403 19.0548C98.5403 16.2166 100.85 13.9071 103.688 13.9071C106.526 13.9071 108.836 16.2166 108.836 19.0548C108.836 21.9208 106.498 24.2024 103.688 24.2024ZM103.688 10.8463C99.1524 10.8463 95.4795 14.5193 95.4795 19.0548C95.4795 23.5903 99.1524 27.2632 103.688 27.2632C108.223 27.2632 111.896 23.5903 111.896 19.0548C111.896 14.5471 108.223 10.8463 103.688 10.8463Z" fill="#646464"/>
<path d="M93.643 24.6198H94.3108V27.7084H93.643C90.1091 27.7084 87.2153 24.8146 87.2153 21.2808V7.17343H90.3039V11.2916H94.2829V14.3802H90.3039V21.3086C90.3039 23.1173 91.8065 24.6198 93.643 24.6198Z" fill="#646464"/>
<path d="M131.263 24.2024C128.424 24.2024 126.115 21.8929 126.115 19.0548C126.115 16.2166 128.424 13.9071 131.263 13.9071C134.101 13.9071 136.41 16.2166 136.41 19.0548C136.382 21.9208 134.073 24.2024 131.263 24.2024ZM131.263 10.8463C126.727 10.8463 123.054 14.5193 123.054 19.0548C123.054 23.5903 126.727 27.2632 131.263 27.2632C135.798 27.2632 139.471 23.5903 139.471 19.0548C139.471 14.5471 135.798 10.8463 131.263 10.8463Z" fill="#646464"/>
<path d="M154.886 24.2024C152.048 24.2024 149.739 21.8929 149.739 19.0548C149.739 16.2166 152.048 13.9071 154.886 13.9071C157.724 13.9071 160.034 16.2166 160.034 19.0548C160.034 21.9208 157.697 24.2024 154.886 24.2024ZM154.886 10.8463C150.351 10.8463 146.678 14.5193 146.678 19.0548C146.678 23.5903 150.351 27.2632 154.886 27.2632C156.89 27.2632 158.726 26.5398 160.145 25.3433V26.9571H163.095V19.3052C163.095 19.2217 163.095 19.1382 163.095 19.0548C163.095 14.5471 159.422 10.8463 154.886 10.8463" fill="#646464"/>
<path d="M120.383 10.8463H121.858V13.9349H120.383C118.546 13.9349 117.044 15.4375 117.044 17.274V19.2774V23.0894V27.0684H113.955V17.274C113.955 13.7402 116.849 10.8463 120.383 10.8463Z" fill="#646464"/>
<path d="M144.619 6.75607H141.53V27.0128H144.619V6.75607Z" fill="#646464"/>
<path d="M66.6805 17.6914V27.458H63.5919V17.6914C63.5919 15.8549 62.0893 14.3523 60.2529 14.3523C58.4164 14.3523 56.9138 15.8549 56.9138 17.6914V27.458H53.8252V17.6914C53.8252 15.8549 52.3227 14.3523 50.4862 14.3523C48.6497 14.3523 47.1472 15.8549 47.1472 17.6914V27.458H44.0586V17.6914C44.0586 14.1576 46.9524 11.2637 50.4584 11.2637C52.434 11.2637 54.1591 12.1263 55.3556 13.5176C56.5521 12.1263 58.2773 11.2637 60.2529 11.2637C63.7867 11.2637 66.6805 14.1576 66.6805 17.6914" fill="#646464"/>
<path d="M76.9758 24.6198C74.1376 24.6198 71.8281 22.3103 71.8281 19.4722C71.8281 16.634 74.1376 14.3245 76.9758 14.3245C79.8139 14.3245 82.1234 16.634 82.1234 19.4722C82.1234 22.3103 79.7861 24.6198 76.9758 24.6198ZM76.9758 11.2637C72.4124 11.2637 68.7395 14.9367 68.7395 19.4722C68.7395 24.0077 72.4124 27.6806 76.9479 27.6806C81.4834 27.6806 85.1564 24.0077 85.1564 19.4722C85.1842 14.9645 81.5113 11.2637 76.9758 11.2637Z" fill="#646464"/>
<path d="M18.7654 0.829285C8.44229 0.829285 0.0947266 9.17684 0.0947266 19.5C0.0947266 29.8231 8.44229 38.1707 18.7654 38.1707C29.0886 38.1707 37.4361 29.8231 37.4361 19.5C37.4361 9.23249 29.1999 0.829285 18.7654 0.829285" fill="#646464"/>
<path d="M24.3305 5.42044L18.7933 23.7851L18.7654 23.8129L18.7098 23.7851L13.1726 5.42044L6.02148 28.9327H7.35709C7.35709 28.9327 8.2475 24.8424 9.72224 22.3938C10.5292 21.0582 11.7535 19.973 13.3952 20.0008C14.5638 20.0287 15.5655 20.6686 16.8177 22.4216C17.0959 22.8112 17.4298 23.4512 17.7637 24.0633C18.2924 25.0928 18.7376 26.1502 18.7376 26.1502C18.7376 26.1502 19.9063 23.479 20.6575 22.4216C21.9097 20.6686 22.9114 20.0287 24.08 20.0008C25.7217 19.973 26.9738 21.0582 27.753 22.3938C29.2277 24.8424 30.1181 28.9327 30.1181 28.9327H31.4537L24.3305 5.42044Z" fill="#AAAAAA"/>
</svg>