<svg width="130" height="29" viewBox="0 0 130 29" xmlns="http://www.w3.org/2000/svg">
<path d="M6.35187 28.643H0.115967V0.468852H10.9009L23.274 21.5027V0.468852H29.5099V28.643H18.9435L6.35187 7.25V28.643ZM59.3457 19.9305C59.3457 23.8469 58.8245 25.1976 57.9616 26.4923C56.639 28.4193 54.7141 29 51.0053 29H40.358C36.6491 29 34.721 28.4193 33.4 26.4923C32.5372 25.1976 32.0159 23.8469 32.0159 19.9305V9.06949C32.0159 5.15522 32.5372 3.80673 33.4 2.50986C34.7227 0.580688 36.6491 0 40.358 0H51.0053C54.7141 0 56.639 0.580688 57.9616 2.50986C58.8245 3.80673 59.3457 5.15522 59.3457 9.06949V19.9305ZM50.743 21.8618C52.1677 21.8618 52.6695 21.75 53.0111 21.3371C53.33 20.9521 53.4708 20.4553 53.4708 18.7992V10.2008C53.4708 8.54472 53.33 8.05221 53.0111 7.66508C52.6695 7.25 52.1677 7.14031 50.743 7.14031H40.6186C39.194 7.14031 38.6921 7.25 38.3522 7.66508C38.0316 8.05221 37.8908 8.54472 37.8908 10.2008V18.7992C37.8908 20.4553 38.0316 20.9521 38.3522 21.3371C38.6921 21.75 39.194 21.8618 40.6186 21.8618H50.743ZM68.4082 0.468852V28.643H61.8922V0.468852H68.4082ZM79.4166 0.468852H88.0193L76.4087 13.6462L89.5038 28.643H80.2988L68.4082 13.9494L79.4166 0.468852ZM90.705 0.468852H97.2226V28.643H90.705V0.468852ZM122.067 28.643L120.139 23.7351H107.53L105.625 28.6408H98.4254L109.976 0.468852H118.077L129.626 28.643H122.067ZM109.795 17.6164H117.897L113.845 7.4156L109.795 17.6164Z" fill="#646464"/>
</svg>