<svg width="130" height="29" viewBox="0 0 130 29" fill="none" xmlns="http://www.w3.org/2000/svg">
<path d="M6.35212 28.643H0.116211V0.468852H10.9012L23.2742 21.5027V0.468852H29.5101V28.643H18.9437L6.35212 7.25V28.643ZM59.346 19.9305C59.346 23.8469 58.8247 25.1976 57.9619 26.4923C56.6392 28.4193 54.7144 29 51.0055 29H40.3582C36.6494 29 34.7213 28.4193 33.4003 26.4923C32.5374 25.1976 32.0161 23.8469 32.0161 19.9305V9.06949C32.0161 5.15522 32.5374 3.80673 33.4003 2.50986C34.7229 0.580688 36.6494 0 40.3582 0H51.0055C54.7144 0 56.6392 0.580688 57.9619 2.50986C58.8247 3.80673 59.346 5.15522 59.346 9.06949V19.9305ZM50.7433 21.8618C52.1679 21.8618 52.6697 21.75 53.0113 21.3371C53.3302 20.9521 53.4711 20.4553 53.4711 18.7992V10.2008C53.4711 8.54472 53.3302 8.05221 53.0113 7.66508C52.6697 7.25 52.1679 7.14031 50.7433 7.14031H40.6188C39.1942 7.14031 38.6924 7.25 38.3524 7.66508C38.0319 8.05221 37.891 8.54472 37.891 10.2008V18.7992C37.891 20.4553 38.0319 20.9521 38.3524 21.3371C38.6924 21.75 39.1942 21.8618 40.6188 21.8618H50.7433ZM68.4085 0.468852V28.643H61.8925V0.468852H68.4085ZM79.4168 0.468852H88.0195L76.4089 13.6462L89.504 28.643H80.2991L68.4085 13.9494L79.4168 0.468852ZM90.7052 0.468852H97.2228V28.643H90.7052V0.468852ZM122.068 28.643L120.14 23.7351H107.53L105.625 28.6408H98.4256L109.976 0.468852H118.077L129.626 28.643H122.068ZM109.795 17.6164H117.897L113.845 7.4156L109.795 17.6164Z" fill="#646464"/>
</svg>
