<svg width="854" height="247" viewBox="0 0 854 247" xmlns="http://www.w3.org/2000/svg">
<path d="M177.467 24.2667H190.533V51.0667C199.467 51.2 208.267 51.2 217.2 51.0667C217.333 55.6 217.6 60.2667 217.067 64.9333C208.267 64.5333 199.333 64.6667 190.533 64.8C190.533 73.7333 190.667 82.8 190.533 91.8667C186.133 91.7333 181.733 91.7333 177.333 91.7333V64.8C168.133 64.5333 158.933 64.6667 149.733 64.6667V51.0667C158.933 51.2 168.133 51.2 177.333 51.0667C177.333 42.1333 177.333 33.2 177.467 24.2667V24.2667ZM27.2 51.0667C60.2666 51.0667 93.3333 51.3333 126.533 51.0667C126.8 55.4667 126.533 60 126.8 64.5333C98.1333 64.8 69.4666 64.6667 40.8 64.6667V200.533C86.2666 200.533 131.867 200.667 177.333 200.4V114.667H190.533C190.533 147.867 190.8 181.067 190.533 214.267C136 214 81.6 214.133 27.2 214.133V51.0667V51.0667ZM241.733 51.2C436.533 51.2 631.333 51.3333 826.133 51.2V214.133C631.2 214.133 436.4 214 241.467 214.267C240.133 212 240.8 209.2 240.667 206.8C240.667 155.333 240.533 103.867 240.667 52.4C240.933 52.1333 241.467 51.6 241.733 51.2V51.2ZM311.333 93.0667C302.267 95.3333 293.733 100.667 288.533 108.533C277.467 125.067 279.333 149.6 294 163.333C310.533 178.4 339.867 177.067 354 159.333C367.067 142.8 365.733 116.267 349.867 101.867C339.6 92.6667 324.667 90 311.333 93.0667V93.0667ZM376.933 91.8667C376.8 119.067 376.8 146.4 376.8 173.6C381.333 173.6 385.867 173.6 390.4 173.467C390.133 154.8 390.8 136 390.133 117.333L391.6 118.133C404.667 135.6 417.867 152.933 430.933 170.4C433.867 175.2 440.4 173.467 445.067 173.2C444.8 146.267 444.933 119.2 444.933 92.2667C440.4 92.1333 435.733 91.6 431.2 92.2667C431.467 110.933 430.933 129.6 431.467 148.133C417.2 130.533 403.6 112.267 389.6 94.4C386.8 90.4 381.067 92.8 376.933 91.8667V91.8667ZM462.933 92C463.067 119.2 462.933 146.267 462.933 173.333C479.6 173.467 496.4 173.6 513.067 173.2C512.933 169.333 512.933 165.467 512.933 161.6C500.933 161.6 488.933 161.333 476.933 161.6C476.4 153.467 476.4 145.2 476.933 136.933C485.867 137.2 494.8 137.067 503.733 137.067C503.733 133.333 503.733 129.467 503.6 125.6C494.667 125.867 485.733 125.467 476.8 125.867C476.133 118.667 476.933 111.333 476.4 104.133C488.533 103.2 500.8 104 513.067 103.733C512.933 99.8667 512.933 95.8667 513.067 92C496.4 91.7333 479.6 91.7333 462.933 92V92ZM530.933 92.1333C531.067 119.067 531.067 146.133 530.933 173.2C534.667 173.2 538.267 173.2 541.867 173.333V141.6C550.533 141.333 559.6 142.533 568 139.867C574.667 137.733 580.8 133.067 583.467 126.533C587.2 117.733 585.867 106.533 579.067 99.6C573.467 94 565.067 92.1333 557.333 91.8667C548.533 91.8667 539.733 91.6 530.933 92.1333ZM599.467 173.6C614.533 173.333 629.467 173.6 644.533 173.6C644.533 170.4 644.667 167.333 644.4 164.267C632.933 164.533 621.6 164.267 610.133 164.4C610.133 140.267 610 116.267 610.267 92.2667C606.667 91.6 603.067 91.8667 599.467 91.7333C599.067 119.067 598.933 146.4 599.467 173.6ZM653.6 92C653.733 107.6 653.6 123.067 653.6 138.667C653.333 146 654.533 153.733 658.667 160C667.6 174.533 688.667 177.733 702.667 169.333C711.867 163.867 716.933 153.2 717.067 142.667C717.2 125.733 717.067 108.8 717.067 91.8667C713.467 91.8667 709.867 91.7333 706.267 91.7333V141.333C706.4 147.867 704.267 154.8 699.333 159.2C691.467 166.267 678.267 166 670.667 158.533C666.267 154.133 664.4 147.6 664.4 141.333C664.4 124.8 664.533 108.267 664.4 91.8667C660.8 91.7333 657.2 91.7333 653.6 92V92ZM746.533 95.7333C736 101.867 733.067 117.733 740.933 127.067C746 132.933 754 134.667 761.2 137.067C766.267 138.667 772.133 140.667 774.267 146C776.533 152.4 773.333 160.4 767.067 163.067C760.667 165.867 752.8 165.2 746.667 161.6C743.867 160.267 741.733 157.467 738.533 156.667C735.6 157.6 734.533 161.067 733.2 163.733C743.333 173.733 760.133 177.2 773.067 170.267C784.667 164.133 789.333 146.8 781.067 136.267C773.2 127.333 759.867 127.867 750.533 121.2C744.267 116.8 745.867 106.4 752.267 102.933C760 98.6667 769.733 100.933 776.4 106.133C780.533 108.8 781.867 102.4 783.467 99.8667C773.733 90.9333 757.867 88.8 746.533 95.7333V95.7333Z" fill="#646464" stroke="#646464" stroke-width="0.125333"/>
<path d="M81.6001 92.1333C93.7334 91.8667 105.733 92.1333 117.867 92C117.867 114.533 118 137.067 117.867 159.6C125.2 160.4 132.667 159.867 140 160V173.333C120.533 173.2 101.067 173.333 81.6001 173.2C81.7334 168.933 81.7334 164.533 81.6001 160.133C89.0668 159.867 96.6668 160.133 104.267 160C104.4 141.733 104.267 123.6 104.267 105.333C96.6668 105.333 89.2001 105.467 81.6001 105.2C81.7334 100.933 81.7334 96.5333 81.6001 92.1333V92.1333Z" fill="#646464" stroke="#EB0028" stroke-width="0.125333"/>
<path d="M541.867 100.4C550.4 100.933 559.6 98.9333 567.6 103.067C575.067 107.2 576.267 117.6 572.533 124.533C569.867 129.733 563.867 132.4 558.267 132.8C552.8 133.067 547.333 132.933 541.867 132.933V100.4ZM312.533 106.133C320.667 103.467 330.4 104 337.467 109.2C343.467 113.467 346.533 120.933 347.2 128.133C348 135.6 347.2 143.467 343.333 150C334.8 164.533 310.533 164.667 301.467 150.667C296.4 142.8 295.867 132.8 297.733 123.733C299.333 115.867 304.8 108.8 312.533 106.133V106.133Z" fill="#646464" stroke="#EB0028" stroke-width="0.125333"/>
</svg>