<svg width="120" height="29" viewBox="0 0 120 29" fill="none" xmlns="http://www.w3.org/2000/svg">
<path d="M30.9029 15.0078V1.01564H33.0313H35.1597V1.94055C35.1597 2.44924 35.1673 2.86545 35.1765 2.86545C35.1858 2.86545 35.4545 2.6978 35.7736 2.49288C39.5384 0.075597 45.0112 -0.652304 49.9198 0.611388C54.342 1.74987 57.5478 4.45247 58.6875 8.00279C59.3535 10.0775 59.3168 12.3847 58.5858 14.3912C57.6766 16.8871 55.8074 18.8939 53.1113 20.2686C50.752 21.4716 48.0583 22.074 45.0383 22.074C42.5346 22.074 40.1996 21.6461 38.1441 20.8105C37.3285 20.479 36.283 19.9348 35.6488 19.5116L35.1597 19.1852V24.0926V28.9999H33.0313H30.9029V15.0078ZM47.0973 18.3542C49.4917 18.006 51.3494 17.2273 52.7422 15.9879C53.7966 15.0497 54.5309 13.7467 54.8091 12.3203C54.9228 11.7369 54.9231 10.3592 54.8102 9.77757C54.4827 8.09893 53.5443 6.63256 52.1396 5.60425C51.5733 5.18975 50.4232 4.59924 49.689 4.34608C47.6158 3.6312 45.1021 3.41949 42.7999 3.76587C38.8026 4.36727 36.101 6.39946 35.3761 9.35004C35.0563 10.6518 35.1134 12.0572 35.536 13.2855C36.496 16.0755 39.3267 17.9322 43.3269 18.3955C44.1311 18.4887 46.3393 18.4645 47.0979 18.3542H47.0973ZM61.2096 15.0078V1.01564H63.338H65.4664V1.94055C65.4664 2.44924 65.4757 2.86545 65.4869 2.86545C65.4982 2.86545 65.7325 2.71509 66.0075 2.53132C66.6438 2.10609 67.8999 1.4701 68.7053 1.16536C72.1821 -0.150169 76.4272 -0.362325 80.1422 0.59378C86.198 2.15232 89.7642 6.42223 89.4275 11.7113C89.1705 15.7487 86.5498 19.065 82.2392 20.8077C80.8331 21.3762 79.3921 21.7347 77.5886 21.9647C76.6368 22.0861 74.0715 22.0859 73.0778 21.9644C70.2655 21.6205 67.7963 20.7644 65.8713 19.4659L65.4664 19.1928V24.0964V29H63.338H61.2096V15.0078V15.0078ZM77.507 18.3336C80.8232 17.8259 83.1601 16.4565 84.388 14.3012C85.1012 13.0494 85.3682 11.384 85.1037 9.83781C84.5539 6.62388 81.7986 4.39996 77.5801 3.76528C74.7957 3.34637 71.6521 3.76363 69.515 4.83576C67.3335 5.93018 66.0207 7.5643 65.5725 9.74294C65.4548 10.3148 65.4552 11.7851 65.5737 12.3457C65.8911 13.8547 66.6085 15.1032 67.6973 16.0416C69.1966 17.3336 71.1479 18.1029 73.6799 18.4003C74.5174 18.4987 76.6747 18.4611 77.5075 18.3336H77.507ZM13.3203 22.0451C11.0623 21.8407 9.135 21.3847 7.4961 20.6671C3.76843 19.0349 1.414 16.2802 0.775041 12.8034C0.653007 12.1393 0.606454 10.6433 0.685589 9.92839C1.147 5.75999 4.14249 2.4583 8.87844 0.898078C11.3987 0.0678 14.501 -0.203422 17.2855 0.163075C22.387 0.834547 26.246 3.25954 27.9421 6.85976C29.3232 9.79115 29.1479 13.3519 27.4879 16.0893C26.74 17.3226 25.5088 18.5952 24.24 19.4463C22.2661 20.7705 19.9085 21.5943 17.0451 21.9604C16.4715 22.0337 13.8524 22.0933 13.3203 22.0451ZM16.3399 18.4C18.5605 18.1584 20.4285 17.5086 21.834 16.4888C22.983 15.6551 23.8922 14.4264 24.3002 13.1561C24.539 12.4125 24.5864 12.0633 24.5864 11.0473C24.5864 10.0342 24.5397 9.68801 24.3027 8.9439C23.5239 6.4982 21.2459 4.679 18.063 3.9608C15.2723 3.33112 12.0179 3.54998 9.60655 4.52949C7.86697 5.23613 6.49385 6.38002 5.68862 7.79338C4.83237 9.29627 4.63811 11.3433 5.18435 13.1074C5.77287 15.0081 7.32327 16.5988 9.45682 17.4911C10.6189 17.977 12.0578 18.3156 13.4823 18.4384C14.0289 18.4854 15.7691 18.4621 16.3399 18.4ZM104.148 22.0467C104.059 22.0363 103.747 22.0046 103.454 21.9762C101.104 21.7479 98.6338 20.9872 96.8227 19.9343C94.3744 18.5108 92.6691 16.4876 91.8906 14.0829C91.3638 12.4554 91.2738 10.6265 91.6379 8.94381C92.1884 6.39949 93.6992 4.23897 96.0455 2.64105C99.1397 0.533812 103.689 -0.402092 108.081 0.165162C111.73 0.636441 114.736 2.00442 116.827 4.14542C118.42 5.77595 119.336 7.68654 119.601 9.93142C119.67 10.5148 119.659 11.6946 119.579 12.3136C119.005 16.7715 115.558 20.1785 110.279 21.5058C108.678 21.9082 107.673 22.0301 105.791 22.05C104.976 22.0586 104.237 22.0571 104.148 22.0467V22.0467ZM106.947 18.4222C109.758 18.1571 112.049 17.2076 113.519 15.6981C114.515 14.6761 115.093 13.551 115.321 12.1913C115.415 11.631 115.413 10.463 115.318 9.88174C114.806 6.75297 112.115 4.48509 108.127 3.82149C107.17 3.66217 106.533 3.61026 105.536 3.61026C101.065 3.61026 97.5963 5.33829 96.2621 8.23001C95.8645 9.09193 95.681 9.98143 95.681 11.0473C95.681 12.4537 96.0007 13.5692 96.7226 14.6806C98.0476 16.721 100.561 18.0245 103.887 18.3968C104.573 18.4736 106.254 18.4875 106.947 18.4222H106.947Z" fill="#646464"/>
</svg>
