<svg width="120" height="29" viewBox="0 0 120 29" xmlns="http://www.w3.org/2000/svg">
<path d="M30.9024 15.0078V1.01564H33.0308H35.1592V1.94055C35.1592 2.44924 35.1668 2.86545 35.1761 2.86545C35.1853 2.86545 35.454 2.6978 35.7731 2.49288C39.5379 0.075597 45.0107 -0.652304 49.9193 0.611388C54.3415 1.74987 57.5474 4.45247 58.687 8.00279C59.353 10.0775 59.3163 12.3847 58.5853 14.3912C57.6761 16.8871 55.8069 18.8939 53.1109 20.2686C50.7515 21.4716 48.0579 22.074 45.0378 22.074C42.5341 22.074 40.1991 21.6461 38.1436 20.8105C37.328 20.479 36.2825 19.9348 35.6483 19.5116L35.1592 19.1852V24.0926V28.9999H33.0308H30.9024V15.0078ZM47.0968 18.3542C49.4912 18.006 51.3489 17.2273 52.7417 15.9879C53.7961 15.0497 54.5304 13.7467 54.8086 12.3203C54.9223 11.7369 54.9226 10.3592 54.8098 9.77757C54.4822 8.09893 53.5438 6.63256 52.1391 5.60425C51.5728 5.18975 50.4227 4.59924 49.6885 4.34608C47.6153 3.6312 45.1016 3.41949 42.7994 3.76587C38.8021 4.36727 36.1005 6.39946 35.3756 9.35004C35.0558 10.6518 35.1129 12.0572 35.5355 13.2855C36.4955 16.0755 39.3262 17.9322 43.3264 18.3955C44.1306 18.4887 46.3388 18.4645 47.0974 18.3542H47.0968ZM61.2091 15.0078V1.01564H63.3375H65.4659V1.94055C65.4659 2.44924 65.4752 2.86545 65.4864 2.86545C65.4977 2.86545 65.732 2.71509 66.007 2.53132C66.6433 2.10609 67.8994 1.4701 68.7048 1.16536C72.1816 -0.150169 76.4267 -0.362325 80.1417 0.59378C86.1975 2.15232 89.7637 6.42223 89.427 11.7113C89.17 15.7487 86.5493 19.065 82.2387 20.8077C80.8326 21.3762 79.3916 21.7347 77.5881 21.9647C76.6363 22.0861 74.071 22.0859 73.0773 21.9644C70.265 21.6205 67.7959 20.7644 65.8708 19.4659L65.4659 19.1928V24.0964V29H63.3375H61.2091V15.0078V15.0078ZM77.5065 18.3336C80.8227 17.8259 83.1596 16.4565 84.3875 14.3012C85.1007 13.0494 85.3678 11.384 85.1032 9.83781C84.5534 6.62388 81.7981 4.39996 77.5796 3.76528C74.7953 3.34637 71.6516 3.76363 69.5145 4.83576C67.333 5.93018 66.0202 7.5643 65.572 9.74294C65.4544 10.3148 65.4547 11.7851 65.5732 12.3457C65.8906 13.8547 66.608 15.1032 67.6968 16.0416C69.1961 17.3336 71.1474 18.1029 73.6794 18.4003C74.5169 18.4987 76.6742 18.4611 77.5071 18.3336H77.5065ZM13.3199 22.0451C11.0618 21.8407 9.13452 21.3847 7.49561 20.6671C3.76794 19.0349 1.41351 16.2802 0.774553 12.8034C0.652518 12.1393 0.605965 10.6433 0.6851 9.92839C1.14651 5.75999 4.142 2.4583 8.87795 0.898078C11.3982 0.0678 14.5005 -0.203422 17.285 0.163075C22.3865 0.834547 26.2455 3.25954 27.9417 6.85976C29.3227 9.79115 29.1475 13.3519 27.4874 16.0893C26.7395 17.3226 25.5083 18.5952 24.2395 19.4463C22.2656 20.7705 19.908 21.5943 17.0446 21.9604C16.471 22.0337 13.8519 22.0933 13.3199 22.0451V22.0451ZM16.3395 18.4C18.56 18.1584 20.428 17.5086 21.8335 16.4888C22.9825 15.6551 23.8917 14.4264 24.2997 13.1561C24.5385 12.4125 24.5859 12.0634 24.5859 11.0473C24.5859 10.0342 24.5392 9.68801 24.3022 8.9439C23.5234 6.4982 21.2455 4.679 18.0625 3.9608C15.2718 3.33112 12.0174 3.54998 9.60607 4.52949C7.86648 5.23613 6.49336 6.38002 5.68813 7.79338C4.83188 9.29627 4.63763 11.3433 5.18386 13.1074C5.77239 15.0081 7.32278 16.5988 9.45633 17.4911C10.6184 17.977 12.0573 18.3156 13.4818 18.4384C14.0284 18.4854 15.7686 18.4621 16.3395 18.4V18.4ZM104.147 22.0467C104.058 22.0363 103.746 22.0046 103.453 21.9762C101.104 21.7479 98.6333 20.9872 96.8222 19.9343C94.3739 18.5108 92.6686 16.4876 91.8902 14.0829C91.3633 12.4554 91.2734 10.6265 91.6374 8.94381C92.1879 6.39949 93.6988 4.23897 96.045 2.64105C99.1392 0.533812 103.689 -0.402092 108.08 0.165162C111.729 0.636441 114.735 2.00442 116.827 4.14542C118.42 5.77595 119.336 7.68654 119.6 9.93142C119.669 10.5148 119.659 11.6946 119.579 12.3136C119.005 16.7715 115.558 20.1785 110.278 21.5058C108.678 21.9082 107.673 22.0301 105.79 22.05C104.976 22.0586 104.237 22.0571 104.147 22.0467V22.0467ZM106.947 18.4222C109.757 18.1571 112.048 17.2076 113.519 15.6981C114.515 14.6761 115.093 13.551 115.32 12.1913C115.414 11.631 115.413 10.463 115.318 9.88174C114.806 6.75297 112.114 4.48509 108.127 3.82149C107.169 3.66217 106.533 3.61026 105.536 3.61026C101.065 3.61026 97.5958 5.33829 96.2617 8.23001C95.864 9.09193 95.6805 9.98143 95.6805 11.0473C95.6805 12.4537 96.0003 13.5692 96.7221 14.6806C98.0472 16.721 100.56 18.0245 103.886 18.3968C104.572 18.4736 106.254 18.4875 106.947 18.4222H106.947Z" fill="#646464"/>
</svg>