<svg width="2500" height="991" viewBox="0 0 2500 991" xmlns="http://www.w3.org/2000/svg">
<path d="M123.073 969.022H0V11.282H326.404C407.555 11.282 477.78 38.259 537.082 92.2079C596.381 146.162 626.031 214.155 626.031 296.192C626.031 378.229 596.381 446.222 537.082 500.173C477.783 554.127 407.555 581.104 326.404 581.102H123.076L123.073 969.022ZM123.073 463.417H329.059C380.791 463.417 422.265 446.024 453.481 411.244C484.695 376.467 500.303 338.121 500.303 296.212C500.303 254.303 484.695 215.957 453.481 181.179C422.265 146.4 380.791 129.01 329.057 129.01H123.076L123.073 463.417ZM867.365 149.092C850.438 166.022 829.937 174.485 805.868 174.483C781.797 174.483 761.291 166.014 744.349 149.072C727.407 132.133 718.939 111.62 718.939 87.5357C718.939 63.4517 727.41 42.9412 744.349 25.9992C761.291 9.05477 781.797 0.586304 805.868 0.586304C829.937 0.586304 850.443 9.05728 867.385 25.9967C884.327 42.9387 892.795 63.4517 892.795 87.5332C892.795 111.62 884.319 132.14 867.365 149.095V149.092ZM867.397 969.022H744.324V313.602H867.397V969.022ZM1574.59 969.022H1430.12L1268.27 726.915L1109.11 969.022H964.64L1196.06 635.964L969.987 313.602H1109.11L1270.96 545.016L1424.78 313.602H1569.24L1340.52 635.964L1574.59 969.022ZM1958.06 990.414C1859.06 990.414 1778.57 957.423 1716.6 891.442C1654.64 825.464 1623.65 742.085 1623.66 641.312C1623.66 545.902 1653.75 463.86 1713.93 395.183C1774.11 326.507 1851.03 292.17 1944.67 292.17C2041.88 292.17 2119.68 323.827 2178.09 387.14C2236.49 450.454 2265.69 535.178 2265.69 641.312L2264.34 664.05H1746.69C1750.25 730.043 1772.32 782.213 1812.9 820.556C1853.48 858.902 1900.96 878.074 1955.37 878.074C2043.65 878.074 2103.4 840.614 2134.61 765.694L2244.3 811.169C2222.88 862.005 2187.65 904.588 2138.61 938.917C2089.57 973.249 2029.39 990.414 1958.06 990.414V990.414ZM2134.61 562.406C2131.94 524.933 2114.78 489.255 2083.12 455.374C2051.45 421.49 2004.4 404.55 1941.98 404.55C1896.5 404.55 1857.05 418.82 1823.62 447.351C1790.18 475.887 1767.22 514.237 1754.73 562.406H2134.61ZM2500 969.022H2376.93V11.282H2500V969.022Z" fill="#6B6B6B"/>
</svg>