<svg width="110" height="37" viewBox="0 0 110 37" fill="none" xmlns="http://www.w3.org/2000/svg">
<path d="M109.027 8.9768C110.512 17.5269 87.3465 28.7234 57.2802 33.9843C27.2184 39.2453 1.64455 36.5763 0.162073 28.0216C-1.3204 19.4715 21.8517 8.27731 51.9135 3.01864C81.9776 -2.24681 107.547 0.4244 109.027 8.9768Z" fill="#646464"/>
<path d="M80.7324 21.6675L80.5792 12.7778H83.3684V23.9833H79.3581L76.5733 14.788H76.5125L76.668 23.9833H73.8945V12.7778H78.0806L80.6716 21.6675H80.7324Z" fill="#AAAAAA"/>
<path d="M30.0168 13.8282L28.4735 24.1011H25.4297L27.5182 12.7778H32.5312L34.6129 24.1011H31.5804L30.0799 13.8282H30.0168Z" fill="#AAAAAA"/>
<path d="M43.1588 21.4344L44.5511 12.7778H49.1472L49.3906 24.1011H46.5743L46.5 13.921H46.4414L44.5579 24.1011H41.6988L39.8131 13.921H39.7522L39.6824 24.1011H36.8594L37.1095 12.7778H41.7078L43.0979 21.4344H43.1588Z" fill="#AAAAAA"/>
<path d="M20.6849 20.9067C20.7953 21.1806 20.7615 21.5337 20.7097 21.7465C20.6151 22.1223 20.3605 22.5071 19.6125 22.5071C18.905 22.5071 18.477 22.0997 18.477 21.4794V20.3838H15.4534L15.4512 21.2598C15.4512 23.7839 17.4293 24.5468 19.5494 24.5468C21.5884 24.5468 23.2668 23.8473 23.5327 21.9593C23.6701 20.9814 23.5665 20.3407 23.5214 20.0985C23.046 17.7284 18.7676 17.0198 18.4499 15.6956C18.3958 15.4692 18.4116 15.227 18.4387 15.0979C18.5175 14.738 18.7631 14.3396 19.4683 14.3396C20.1262 14.3396 20.5159 14.7493 20.5159 15.3673C20.5159 15.5756 20.5159 16.0668 20.5159 16.0668H23.3254V15.2722C23.3254 12.8048 21.122 12.4199 19.5269 12.4199C17.5217 12.4199 15.8837 13.0855 15.5841 14.9281C15.503 15.4375 15.4917 15.8902 15.6089 16.4584C16.1023 18.7697 20.1036 19.4398 20.6849 20.9067Z" fill="#AAAAAA"/>
<path d="M57.3297 20.8862C57.4401 21.1579 57.404 21.502 57.3544 21.7147C57.2621 22.0905 57.0097 22.4686 56.2662 22.4686C55.5701 22.4686 55.1443 22.0611 55.1443 21.4544L55.142 20.3678H52.15L52.1455 21.2326C52.1455 23.7317 54.1056 24.4856 56.2032 24.4856C58.2196 24.4856 59.8823 23.7951 60.1459 21.9253C60.2833 20.9541 60.1865 20.3225 60.1369 20.0849C59.6638 17.7374 55.4304 17.0356 55.115 15.7226C55.0609 15.4963 55.0767 15.2586 55.1037 15.1363C55.1848 14.7719 55.4259 14.3848 56.1243 14.3848C56.7777 14.3848 57.1584 14.7832 57.1584 15.3989C57.1584 15.6049 57.1584 16.0916 57.1584 16.0916H59.9477V15.3038C59.9477 12.8635 57.7622 12.481 56.1806 12.481C54.198 12.481 52.5736 13.1374 52.2807 14.9688C52.1996 15.4714 52.1906 15.915 52.3077 16.481C52.7921 18.7696 56.7551 19.4352 57.3297 20.8862Z" fill="#AAAAAA"/>
<path d="M66.7947 22.4074C67.5765 22.4074 67.8198 21.8641 67.8739 21.5857C67.8964 21.4634 67.9032 21.3005 67.901 21.1533V12.7729H70.751V20.8952C70.7578 21.1035 70.7375 21.5314 70.7262 21.6377C70.5257 23.7521 68.863 24.438 66.7925 24.438C64.7197 24.438 63.0547 23.7521 62.8565 21.6377C62.8475 21.5314 62.8272 21.1012 62.8317 20.8952V12.7729H65.6795V21.151C65.6795 21.2982 65.684 21.4634 65.7065 21.5834C65.7696 21.8619 66.0062 22.4074 66.7947 22.4074Z" fill="#AAAAAA"/>
<path d="M90.3048 22.2876C91.1204 22.2876 91.4065 21.7692 91.4584 21.4681C91.4786 21.3391 91.4854 21.1806 91.4831 21.038V19.3945H90.3273V17.742H94.3242V20.7822C94.3219 20.995 94.3174 21.1512 94.2836 21.5292C94.0966 23.5892 92.3168 24.3249 90.3206 24.3249C88.3199 24.3249 86.5446 23.5892 86.3531 21.5292C86.3215 21.1512 86.317 20.995 86.3125 20.7822L86.3147 16.0147C86.3147 15.8133 86.3395 15.4579 86.3621 15.2677C86.6121 13.1511 88.3199 12.4697 90.3206 12.4697C92.319 12.4697 94.0696 13.1466 94.2769 15.2677C94.3129 15.6276 94.3016 16.0147 94.3016 16.0147V16.3928H91.4606V15.7589C91.4629 15.7612 91.4561 15.4896 91.4246 15.3288C91.3772 15.0776 91.161 14.5026 90.3003 14.5026C89.478 14.5026 89.2391 15.0459 89.1783 15.3288C89.1445 15.4782 89.131 15.6797 89.131 15.8631V21.0425C89.1288 21.1851 89.1378 21.3436 89.1603 21.4726C89.2054 21.7692 89.4892 22.2876 90.3048 22.2876Z" fill="#AAAAAA"/>
</svg>
