<svg width="110" height="37" viewBox="0 0 110 37" xmlns="http://www.w3.org/2000/svg">
<path d="M109.027 8.97668C110.512 17.5268 87.3465 28.7233 57.2802 33.9842C27.2184 39.2451 1.64455 36.5762 0.162073 28.0215C-1.3204 19.4714 21.8517 8.27719 51.9135 3.01852C81.9776 -2.24693 107.547 0.424278 109.027 8.97668Z" fill="#646464"/>
<path d="M80.7317 21.6672L80.5785 12.7775H83.3677V23.983H79.3573L76.5726 14.7877H76.5118L76.6672 23.983H73.8938V12.7775H78.0799L80.6708 21.6672H80.7317Z" fill="#AAAAAA"/>
<path d="M30.0166 13.8279L28.4732 24.1007H25.4294L27.518 12.7775H32.5309L34.6127 24.1007H31.5801L30.0796 13.8279H30.0166Z" fill="#AAAAAA"/>
<path d="M43.1585 21.434L44.5509 12.7775H49.147L49.3903 24.1007H46.5741L46.4997 13.9207H46.4412L44.5576 24.1007H41.6986L39.8128 13.9207H39.752L39.6821 24.1007H36.8591L37.1092 12.7775H41.7076L43.0977 21.434H43.1585Z" fill="#AAAAAA"/>
<path d="M20.6847 20.9066C20.7951 21.1805 20.7613 21.5336 20.7094 21.7464C20.6148 22.1222 20.3602 22.5071 19.6122 22.5071C18.9048 22.5071 18.4767 22.0996 18.4767 21.4793V20.3837H15.4532L15.4509 21.2597C15.4509 23.7838 17.4291 24.5467 19.5491 24.5467C21.5881 24.5467 23.2666 23.8472 23.5324 21.9592C23.6699 20.9813 23.5662 20.3407 23.5212 20.0984C23.0458 17.7283 18.7673 17.0197 18.4497 15.6955C18.3956 15.4691 18.4114 15.2269 18.4384 15.0978C18.5173 14.7379 18.7628 14.3395 19.468 14.3395C20.1259 14.3395 20.5157 14.7492 20.5157 15.3672C20.5157 15.5755 20.5157 16.0667 20.5157 16.0667H23.3252V15.2721C23.3252 12.8047 21.1217 12.4198 19.5266 12.4198C17.5214 12.4198 15.8835 13.0854 15.5839 14.9281C15.5027 15.4374 15.4915 15.8901 15.6086 16.4583C16.102 18.7696 20.1034 19.4397 20.6847 20.9066Z" fill="#AAAAAA"/>
<path d="M57.3297 20.8862C57.4401 21.1579 57.404 21.502 57.3544 21.7147C57.2621 22.0905 57.0097 22.4686 56.2662 22.4686C55.5701 22.4686 55.1443 22.0611 55.1443 21.4544L55.142 20.3678H52.15L52.1455 21.2326C52.1455 23.7317 54.1056 24.4856 56.2032 24.4856C58.2196 24.4856 59.8823 23.7951 60.1459 21.9253C60.2834 20.9541 60.1865 20.3225 60.1369 20.0849C59.6638 17.7374 55.4304 17.0356 55.115 15.7226C55.0609 15.4963 55.0767 15.2586 55.1037 15.1363C55.1848 14.7719 55.4259 14.3848 56.1243 14.3848C56.7777 14.3848 57.1584 14.7832 57.1584 15.3989C57.1584 15.6049 57.1584 16.0916 57.1584 16.0916H59.9477V15.3038C59.9477 12.8635 57.7622 12.481 56.1806 12.481C54.198 12.481 52.5736 13.1374 52.2807 14.9688C52.1996 15.4714 52.1906 15.915 52.3077 16.481C52.7921 18.7696 56.7551 19.4352 57.3297 20.8862Z" fill="#AAAAAA"/>
<path d="M66.7947 22.4074C67.5765 22.4074 67.8198 21.8642 67.8739 21.5857C67.8964 21.4635 67.9032 21.3005 67.901 21.1533V12.773H70.751V20.8953C70.7578 21.1035 70.7375 21.5314 70.7262 21.6378C70.5257 23.7521 68.863 24.438 66.7925 24.438C64.7197 24.438 63.0547 23.7521 62.8565 21.6378C62.8475 21.5314 62.8272 21.1013 62.8317 20.8953V12.773H65.6795V21.1511C65.6795 21.2982 65.684 21.4635 65.7065 21.5834C65.7696 21.8619 66.0062 22.4074 66.7947 22.4074Z" fill="#AAAAAA"/>
<path d="M90.3048 22.2875C91.1204 22.2875 91.4065 21.7691 91.4584 21.468C91.4786 21.339 91.4854 21.1805 91.4831 21.0379V19.3944H90.3273V17.7419H94.3242V20.7821C94.3219 20.9949 94.3174 21.1511 94.2836 21.5291C94.0966 23.5891 92.3167 24.3248 90.3206 24.3248C88.3199 24.3248 86.5446 23.5891 86.3531 21.5291C86.3215 21.1511 86.317 20.9949 86.3125 20.7821L86.3147 16.0147C86.3147 15.8132 86.3395 15.4578 86.3621 15.2676C86.6121 13.151 88.3199 12.4696 90.3206 12.4696C92.319 12.4696 94.0696 13.1465 94.2769 15.2676C94.3129 15.6276 94.3016 16.0147 94.3016 16.0147V16.3927H91.4606V15.7588C91.4629 15.7611 91.4561 15.4895 91.4246 15.3287C91.3772 15.0775 91.161 14.5025 90.3003 14.5025C89.478 14.5025 89.2391 15.0458 89.1783 15.3287C89.1445 15.4781 89.131 15.6796 89.131 15.863V21.0424C89.1288 21.185 89.1378 21.3435 89.1603 21.4725C89.2054 21.7691 89.4892 22.2875 90.3048 22.2875Z" fill="#AAAAAA"/>
</svg>