<svg width="500" height="90" viewBox="0 0 500 90" xmlns="http://www.w3.org/2000/svg">
<path d="M178.416 88.677C160.376 88.677 143.63 83.267 132.452 73.234C124.007 65.654 119.949 55.358 119.949 44.761C119.949 34.293 124.182 23.926 132.451 16.386C142.832 6.925 161.16 1 178.416 1C197.512 1 212.796 5.81 224.48 16.412C232.793 23.956 236.812 34.277 236.812 44.762C236.812 54.925 232.547 65.748 224.48 73.234C213.6 83.332 196.502 88.677 178.416 88.677V77.113C187.991 77.113 196.873 73.807 203.076 67.635C209.236 61.505 212.106 53.97 212.106 44.761C212.106 35.939 209.01 27.691 203.076 21.841C196.956 15.813 187.862 12.421 178.416 12.421C168.941 12.421 159.841 15.778 153.716 21.841C147.814 27.689 144.71 35.961 144.71 44.761C144.71 53.534 147.85 61.801 153.716 67.636C159.846 73.734 168.914 77.114 178.416 77.114V88.678V88.677ZM46.5622 1.042C36.9122 1.042 25.9492 2.847 16.6342 7.007C8.03725 10.843 1.00025 17.047 1.00025 27.332C0.996246 36.595 6.88325 42.02 6.72325 41.87C9.22725 44.175 13.2582 48.1 23.7972 50.405C28.5072 51.435 38.5772 53.017 48.6052 54.065C58.5592 55.115 68.3552 56.113 72.3452 57.123C75.5152 57.93 80.8402 59.029 80.8402 65.003C80.8402 70.953 75.2302 72.769 74.2552 73.163C73.2812 73.548 66.5512 76.636 54.4532 76.636C45.5212 76.636 34.7832 73.95 30.8692 72.55C26.3572 70.944 21.6242 68.82 17.2092 63.427C16.1112 62.09 14.3792 58.413 14.3792 54.772H3.43025V85.452H15.6002V81.307C15.6002 80.835 16.1902 78.894 18.2332 79.817C20.7752 80.972 28.2372 83.943 36.0392 85.572C42.4362 86.91 46.5612 87.869 54.5142 87.869C67.4902 87.869 74.4612 85.755 79.2802 84.379C83.8202 83.079 89.4302 80.745 93.9872 77.111C96.4552 75.146 101.867 70.109 101.867 60.966C101.867 52.19 97.1572 46.743 95.5002 45.086C93.2432 42.828 90.4862 41.078 87.6132 39.729C85.1102 38.551 81.1602 37.136 77.9282 36.345C71.6552 34.805 57.4712 32.905 50.6882 32.195C43.5752 31.452 31.2362 30.43 26.3082 28.905C24.8142 28.442 21.7682 26.991 21.7682 23.455C21.7682 20.94 23.1612 18.808 25.9142 17.085C30.2842 14.347 39.1112 12.645 48.3122 12.645C59.1902 12.605 68.4022 15.092 74.2622 17.712C76.2552 18.602 78.5872 19.88 80.4392 21.392C82.5292 23.096 85.4632 26.637 86.5242 31.576H96.3542V4.87H85.3782V7.974C85.3782 8.976 84.3432 10.278 82.3862 9.202C77.4742 6.625 63.5862 1.065 46.5602 1.042H46.5622ZM287.096 5.895L340.638 54.215L340.088 21.682C340.034 17.416 339.248 15.635 334.634 15.635H324.567V5.903H370.347V15.635H360.527C355.821 15.635 355.524 17.14 355.467 21.682L356.297 83.845H340.619L278.949 28.805L278.962 67.867C279.016 72.113 279.215 74.113 283.59 74.113H294.585V83.841H249.625V74.114H260.135C264.061 74.114 263.905 70.371 263.905 67.646V22.052C263.905 19.109 263.492 15.642 257.328 15.642H248.8V5.895H287.096ZM422.66 74.095C423.09 74.095 425 74.04 425.37 73.927C426.427 73.597 427.144 72.843 427.476 72.057C427.616 71.727 427.686 70.267 427.686 69.95L427.694 54.57C427.694 54.2 427.667 54.04 427.039 53.216C426.349 52.316 398.994 21.316 397.742 19.951C396.187 18.256 393.457 15.636 389.309 15.636H379.796V5.9H433.483V15.624H427.011C425.514 15.624 424.519 17.044 425.798 18.622C425.798 18.622 443.861 40.229 444.032 40.455C444.2 40.685 444.344 40.74 444.574 40.53C444.8 40.315 463.09 18.82 463.234 18.65C464.104 17.608 463.514 15.635 461.639 15.635H455V5.9H499V15.635H489.17C485.604 15.635 484.153 16.295 481.47 19.328C480.243 20.716 452.596 52.273 451.844 53.128C451.45 53.575 451.484 54.198 451.484 54.568V69.946C451.484 70.258 451.554 71.72 451.694 72.048C452.027 72.838 452.748 73.592 453.804 73.918C454.174 74.032 456.058 74.088 456.487 74.088H466.542V83.822H413.132V74.087L422.662 74.095H422.66Z" fill="#646464"/>
</svg>