<svg width="47" height="47" viewBox="0 0 47 47" xmlns="http://www.w3.org/2000/svg">
<path fill-rule="evenodd" clip-rule="evenodd" d="M44.369 46.5121H1.84182C0.876883 46.5121 0.0947266 45.7298 0.0947266 44.7648V2.23471C0.0947266 1.26971 0.876883 0.487939 1.84182 0.487939H44.369C45.3339 0.487939 46.1161 1.26971 46.1161 2.23471V44.7648C46.1161 45.7298 45.3339 46.5121 44.369 46.5121Z" fill="#646464"/>
<path d="M36.1819 14.9634H32.5613C32.4063 14.9634 32.2808 15.0868 32.2808 15.2387V31.7591C32.2808 31.9098 32.4063 32.0331 32.5613 32.0331H36.1819C36.3356 32.0331 36.4629 31.9098 36.4629 31.7591V15.2387C36.4629 15.0868 36.3356 14.9634 36.1819 14.9634Z" fill="#AAAAAA"/>
<path d="M23.8196 14.9633H10.0282C9.87318 14.9633 9.74854 15.0866 9.74854 15.2386V31.759C9.74854 31.9096 9.87318 32.033 10.0282 32.033H13.6497C13.8038 32.033 13.9316 31.9096 13.9316 31.759V18.7929C13.9316 18.6432 14.0562 18.519 14.2112 18.519H22.0122C24.2058 18.519 24.8286 20.1992 24.8286 21.2832V31.759C24.8286 31.9096 24.9545 32.033 25.1096 32.033H28.7288C28.883 32.033 29.0094 31.9096 29.0094 31.759V20.0394C29.0094 19.0726 28.8931 17.6826 27.6459 16.459C26.3409 15.1818 25.1505 14.9633 23.8196 14.9633" fill="#AAAAAA"/>
<path d="M21.2828 21.5436H17.4808C17.3258 21.5436 17.1985 21.6669 17.1985 21.818V31.7605C17.1985 31.9107 17.3258 32.034 17.4808 32.034H21.2828C21.4365 32.034 21.5625 31.9107 21.5625 31.7605V21.818C21.5625 21.6669 21.4365 21.5436 21.2828 21.5436Z" fill="#AAAAAA"/>
</svg>