<svg width="47" height="47" viewBox="0 0 47 47" fill="none" xmlns="http://www.w3.org/2000/svg">
<path fill-rule="evenodd" clip-rule="evenodd" d="M44.369 46.5117H1.84182C0.876883 46.5117 0.0947266 45.7295 0.0947266 44.7645V2.23437C0.0947266 1.26937 0.876883 0.487602 1.84182 0.487602H44.369C45.3339 0.487602 46.1161 1.26937 46.1161 2.23437V44.7645C46.1161 45.7295 45.3339 46.5117 44.369 46.5117Z" fill="#646464"/>
<path d="M36.1814 14.9631H32.5608C32.4058 14.9631 32.2803 15.0864 32.2803 15.2383V31.7588C32.2803 31.9094 32.4058 32.0327 32.5608 32.0327H36.1814C36.3351 32.0327 36.4624 31.9094 36.4624 31.7588V15.2383C36.4624 15.0864 36.3351 14.9631 36.1814 14.9631Z" fill="#AAAAAA"/>
<path d="M23.8191 14.9631H10.0277C9.87269 14.9631 9.74805 15.0864 9.74805 15.2383V31.7588C9.74805 31.9094 9.87269 32.0327 10.0277 32.0327H13.6492C13.8033 32.0327 13.9311 31.9094 13.9311 31.7588V18.7927C13.9311 18.6429 14.0557 18.5187 14.2107 18.5187H22.0117C24.2053 18.5187 24.8281 20.199 24.8281 21.2829V31.7588C24.8281 31.9094 24.954 32.0327 25.1091 32.0327H28.7284C28.8825 32.0327 29.0089 31.9094 29.0089 31.7588V20.0391C29.0089 19.0724 28.8926 17.6823 27.6454 16.4588C26.3404 15.1815 25.15 14.9631 23.8191 14.9631Z" fill="#AAAAAA"/>
<path d="M21.2826 21.5433H17.4805C17.3255 21.5433 17.1982 21.6666 17.1982 21.8177V31.7602C17.1982 31.9104 17.3255 32.0337 17.4805 32.0337H21.2826C21.4363 32.0337 21.5622 31.9104 21.5622 31.7602V21.8177C21.5622 21.6666 21.4363 21.5433 21.2826 21.5433Z" fill="#AAAAAA"/>
</svg>
