<svg width="34" height="34" viewBox="0 0 34 34" fill="none" xmlns="http://www.w3.org/2000/svg">
<path d="M17 0C7.61115 0 0 7.61115 0 17C0 26.3888 7.61115 34 17 34C26.3888 34 34 26.3888 34 17C34 7.61115 26.3888 0 17 0Z" fill="url(#paint0_linear_167_17)"/>
<path d="M26.146 12.4534C25.5149 12.4534 24.89 12.3291 24.307 12.0876C23.724 11.8461 23.1942 11.4921 22.748 11.0459C22.3017 10.5997 21.9478 10.0699 21.7063 9.48692C21.4648 8.9039 21.3405 8.27901 21.3405 7.64795H17.9073V21.0918C17.9066 21.7047 17.7131 22.3019 17.3541 22.7987C16.995 23.2954 16.4888 23.6666 15.907 23.8596C15.3253 24.0526 14.6975 24.0576 14.1128 23.8739C13.528 23.6902 13.0159 23.3271 12.649 22.8361C12.2822 22.3451 12.0791 21.7511 12.0687 21.1383C12.0583 20.5254 12.241 19.9248 12.591 19.4216C12.941 18.9185 13.4405 18.5382 14.0186 18.3347C14.5968 18.1312 15.2244 18.1149 15.8123 18.288V14.9507C14.5628 14.7822 13.2916 14.9989 12.1684 15.572C11.0453 16.145 10.1237 17.047 9.52666 18.1576C8.92966 19.2681 8.68568 20.5344 8.8273 21.7873C8.96892 23.0402 9.48939 24.2201 10.3192 25.1694C11.1491 26.1187 12.2488 26.7922 13.4715 27.1001C14.6942 27.4079 15.9817 27.3354 17.1621 26.8923C18.3426 26.4491 19.3597 25.6564 20.0777 24.6199C20.7957 23.5835 21.1805 22.3526 21.1806 21.0918L21.2802 14.2963C22.6908 15.3318 24.3956 15.889 26.1456 15.8864L26.146 12.4534Z" fill="url(#paint1_linear_167_17)"/>
<path d="M25.2385 11.5179C23.9641 11.5179 22.7418 11.0115 21.8406 10.1103C20.9395 9.20914 20.4332 7.98687 20.4332 6.7124H17V20.1562C16.9994 20.7692 16.8059 21.3663 16.4469 21.8631C16.0879 22.3599 15.5816 22.7311 14.9998 22.9241C14.4181 23.1171 13.7903 23.1221 13.2056 22.9385C12.6208 22.7548 12.1087 22.3917 11.7418 21.9007C11.375 21.4097 11.1719 20.8156 11.1615 20.2028C11.1511 19.59 11.3338 18.9894 11.6838 18.4862C12.0338 17.983 12.5332 17.6027 13.1114 17.3992C13.6896 17.1958 14.3171 17.1794 14.9051 17.3525V14.0152C13.6556 13.8467 12.3843 14.0634 11.2612 14.6364C10.138 15.2094 9.21644 16.1114 8.61944 17.222C8.02244 18.3326 7.77845 19.5989 7.92007 20.8518C8.06169 22.1047 8.58217 23.2845 9.412 24.2338C10.2418 25.1831 11.3415 25.8567 12.5642 26.1645C13.7869 26.4724 15.0745 26.3999 16.2549 25.9567C17.4353 25.5136 18.4525 24.7208 19.1705 23.6844C19.8885 22.6479 20.2733 21.4171 20.2733 20.1562L20.3735 13.3608C21.7841 14.3963 23.489 14.9535 25.2389 14.9509L25.2385 11.5179Z" fill="url(#paint2_linear_167_17)"/>
<path d="M25.2387 12.3674C24.0508 12.1389 22.9928 11.4707 22.2759 10.4964C21.3699 9.78727 20.7484 8.77652 20.5245 7.64795H17.9077V21.0918C17.9077 21.7298 17.6988 22.3503 17.3131 22.8585C16.9274 23.3668 16.3859 23.7349 15.7714 23.9066C15.1569 24.0783 14.5031 24.0442 13.9098 23.8095C13.3165 23.5748 12.8162 23.1524 12.4855 22.6068C11.8972 22.2239 11.4664 21.6422 11.2717 20.9679C11.077 20.2936 11.1314 19.5717 11.425 18.9342C11.7186 18.2967 12.2318 17.7861 12.8708 17.4958C13.5098 17.2054 14.2319 17.1547 14.9052 17.3528V14.8969C13.7503 14.9118 12.6226 15.2492 11.6493 15.871C10.676 16.4929 9.89588 17.3744 9.39702 18.4161C8.89816 19.4578 8.70042 20.6182 8.8261 21.7663C8.95179 22.9145 9.3959 24.0046 10.1083 24.9137C11.0128 25.6684 12.1136 26.1496 13.2818 26.3009C14.4499 26.4523 15.637 26.2675 16.7039 25.7682C17.7708 25.2689 18.6733 24.4758 19.3055 23.4819C19.9377 22.488 20.2735 21.3344 20.2735 20.1565L20.3736 13.3611C21.7842 14.3966 23.4891 14.9538 25.239 14.9512L25.2387 12.3674Z" fill="url(#paint3_linear_167_17)"/>
<defs>
<linearGradient id="paint0_linear_167_17" x1="-0.0894494" y1="34.0894" x2="33.9136" y2="0.0863947" gradientUnits="userSpaceOnUse">
<stop/>
<stop offset="1"/>
</linearGradient>
<linearGradient id="paint1_linear_167_17" x1="10.164" y1="25.0331" x2="24.4448" y2="10.7522" gradientUnits="userSpaceOnUse">
<stop stop-color="#B5053C"/>
<stop offset="0.233" stop-color="#C90441"/>
<stop offset="0.737" stop-color="#F0014B"/>
<stop offset="1" stop-color="#FF004F"/>
</linearGradient>
<linearGradient id="paint2_linear_167_17" x1="9.04404" y1="24.3101" x2="24.087" y2="9.26719" gradientUnits="userSpaceOnUse">
<stop stop-color="#00B2C9"/>
<stop offset="0.283" stop-color="#00C8D4"/>
<stop offset="0.741" stop-color="#00E6E4"/>
<stop offset="1" stop-color="#00F1EA"/>
</linearGradient>
<linearGradient id="paint3_linear_167_17" x1="0.616344" y1="33.6597" x2="33.9141" y2="0.361922" gradientUnits="userSpaceOnUse">
<stop stop-color="#DDE3E4"/>
<stop offset="1" stop-color="#FCF7F7"/>
</linearGradient>
</defs>
</svg>
